<?xml version="1.0" encoding="UTF-8" standalone="no"?>
<!-- Created with Inkscape (http://www.inkscape.org/) -->

<svg
   xmlns:dc="http://purl.org/dc/elements/1.1/"
   xmlns:cc="http://creativecommons.org/ns#"
   xmlns:rdf="http://www.w3.org/1999/02/22-rdf-syntax-ns#"
   xmlns:svg="http://www.w3.org/2000/svg"
   xmlns="http://www.w3.org/2000/svg"
   xmlns:xlink="http://www.w3.org/1999/xlink"
   version="1.1"
   width="200"
   height="199.69542"
   viewBox="0 0 200 199.69542"
   id="圖層_1"
   xml:space="preserve"><metadata
   id="metadata49"><rdf:RDF><cc:Work
       rdf:about=""><dc:format>image/svg+xml</dc:format><dc:type
         rdf:resource="http://purl.org/dc/dcmitype/StillImage" /><dc:title></dc:title></cc:Work></rdf:RDF></metadata><defs
   id="defs47" />
<g
   transform="matrix(1.6201023,0,0,1.6201023,-1393.3658,-86.615529)"
   id="g3">
	<path
   d="m 921.772,53.476 v 6.163 0.012 l -2.876,0.063 -2.837,0.215 -2.782,0.362 -2.75,0.492 -2.698,0.618 -2.645,0.754 -2.601,0.875 -2.526,1.002 -2.473,1.115 -2.404,1.223 -2.344,1.351 -2.256,1.441 -2.188,1.551 -2.117,1.656 -2.017,1.758 -1.937,1.831 -1.855,1.939 -1.755,2.015 -1.654,2.094 -1.547,2.173 -1.451,2.255 -1.347,2.318 -1.231,2.392 -1.108,2.445 -0.996,2.512 -0.879,2.573 -0.748,2.617 -0.623,2.67 -0.495,2.722 -0.351,2.767 -0.218,2.795 -0.063,2.848 h -5.952 l 0.089,-3.161 0.24,-3.136 0.396,-3.08 0.542,-3.035 0.692,-2.985 0.841,-2.931 0.973,-2.864 1.112,-2.8 1.249,-2.737 1.369,-2.657 1.487,-2.583 1.613,-2.498 1.733,-2.416 1.839,-2.332 1.941,-2.236 2.041,-2.131 2.146,-2.049 2.249,-1.927 2.326,-1.825 2.421,-1.719 2.513,-1.61 2.574,-1.472 2.661,-1.369 2.729,-1.235 2.806,-1.099 2.855,-0.971 2.924,-0.828 2.977,-0.691 3.028,-0.54 3.086,-0.386 3.116,-0.239 3.154,-0.088 v 0.013 z m -61.724,61.617 H 866 l 0.063,2.849 0.218,2.796 0.351,2.768 0.495,2.72 0.623,2.671 0.748,2.617 0.879,2.573 0.996,2.511 1.108,2.446 1.231,2.391 1.347,2.318 1.451,2.255 1.547,2.175 1.654,2.092 1.755,2.017 1.855,1.937 1.937,1.832 2.017,1.759 2.117,1.654 2.188,1.551 2.256,1.44 2.344,1.352 2.404,1.223 2.473,1.115 2.526,1.002 2.601,0.875 2.645,0.754 2.698,0.619 2.75,0.492 2.782,0.36 2.837,0.217 2.876,0.062 v 6.187 l -3.154,-0.088 -3.116,-0.238 -3.086,-0.387 -3.028,-0.54 -2.977,-0.691 -2.924,-0.828 -2.855,-0.971 -2.806,-1.1 -2.729,-1.233 -2.661,-1.37 -2.574,-1.472 -2.513,-1.609 -2.421,-1.72 -2.326,-1.825 -2.249,-1.926 -2.146,-2.049 -2.041,-2.132 -1.941,-2.235 -1.839,-2.333 -1.733,-2.416 -1.613,-2.497 -1.487,-2.584 -1.369,-2.657 -1.249,-2.737 -1.112,-2.8 -0.973,-2.862 -0.841,-2.933 -0.692,-2.985 -0.542,-3.034 -0.396,-3.08 -0.24,-3.136 -0.091,-3.162 z m 61.724,61.631 v -6.187 0.013 l 2.876,-0.075 2.836,-0.217 2.784,-0.36 2.749,-0.492 2.698,-0.619 2.646,-0.754 2.599,-0.875 2.526,-1.002 2.473,-1.115 2.406,-1.223 2.343,-1.352 2.257,-1.44 2.188,-1.563 2.114,-1.643 2.018,-1.759 1.937,-1.832 1.856,-1.937 1.755,-2.017 1.654,-2.092 1.548,-2.175 1.448,-2.255 1.348,-2.318 1.23,-2.391 1.109,-2.446 0.996,-2.511 0.88,-2.573 0.747,-2.617 0.623,-2.671 0.496,-2.72 0.351,-2.768 0.216,-2.796 0.065,-2.849 h 5.951 l -0.088,3.162 -0.24,3.136 -0.398,3.08 -0.541,3.034 -0.692,2.985 -0.841,2.933 -0.973,2.862 -1.111,2.8 -1.249,2.737 -1.37,2.657 -1.487,2.584 -1.612,2.497 -1.733,2.416 -1.84,2.333 -1.941,2.235 -2.04,2.132 -2.147,2.049 -2.25,1.926 -2.323,1.838 -2.421,1.707 -2.514,1.609 -2.576,1.472 -2.659,1.37 -2.729,1.233 -2.805,1.1 -2.855,0.971 -2.925,0.828 -2.977,0.691 -3.028,0.54 -3.085,0.387 -3.117,0.238 -3.154,0.077 v 0.012 z m 61.725,-61.631 h -5.951 l -0.065,-2.848 -0.216,-2.795 -0.351,-2.767 -0.496,-2.722 -0.623,-2.67 -0.747,-2.617 -0.88,-2.573 -0.996,-2.512 -1.109,-2.445 -1.23,-2.392 -1.348,-2.318 -1.448,-2.255 -1.548,-2.173 -1.654,-2.094 -1.755,-2.015 -1.856,-1.939 -1.937,-1.831 -2.018,-1.758 -2.114,-1.645 -2.188,-1.562 -2.257,-1.441 -2.343,-1.351 -2.406,-1.223 -2.473,-1.115 -2.526,-1.002 -2.599,-0.875 -2.646,-0.754 -2.698,-0.618 -2.749,-0.492 -2.784,-0.362 -2.836,-0.215 -2.876,-0.076 v -6.163 l 3.154,0.076 3.117,0.239 3.085,0.386 3.028,0.54 2.977,0.691 2.925,0.828 2.855,0.971 2.805,1.099 2.729,1.235 2.659,1.369 2.576,1.472 2.514,1.61 2.421,1.707 2.323,1.837 2.25,1.927 2.147,2.049 2.04,2.131 1.941,2.236 1.84,2.332 1.733,2.416 1.612,2.498 1.487,2.583 1.37,2.657 1.249,2.737 1.111,2.8 0.973,2.864 0.841,2.931 0.692,2.985 0.541,3.035 0.398,3.08 0.24,3.136 0.09,3.161 z"
   id="path5"
   style="fill:#89c997" />
	<g
   id="g7">
		<defs
   id="defs9">
			<rect
   width="123.448"
   height="123.26"
   x="860.04797"
   y="53.463001"
   id="SVGID_1_" />
		</defs>
		<clipPath
   id="SVGID_2_">
			<use
   id="use13"
   style="overflow:visible"
   x="0"
   y="0"
   width="1683.78"
   height="2383.9399"
   xlink:href="#SVGID_1_" />
		</clipPath>
		<path
   d="m 921.772,56.557 c 32.357,0 58.749,26.297 58.749,58.537 0,32.242 -26.392,58.537 -58.749,58.537 -32.356,0 -58.749,-26.295 -58.749,-58.537 0,-32.24 26.393,-58.537 58.749,-58.537"
   clip-path="url(#SVGID_2_)"
   id="path15"
   style="fill:#ffffff;fill-rule:evenodd" />
		<path
   d="m 921.711,71.708 c 23.858,0 43.317,19.18 43.317,42.698 0,23.516 -19.459,42.697 -43.317,42.697 -23.858,0 -43.316,-19.181 -43.316,-42.697 0,-23.518 19.458,-42.698 43.316,-42.698"
   clip-path="url(#SVGID_2_)"
   id="path17"
   style="fill:#00561f;fill-rule:evenodd" />
		<path
   d="m 889.192,91.58 0.169,-1.666 1.602,-0.333 -1.771,1.999 z m 1.771,-1.999 0.867,4.462 1.771,-2 -0.031,0.302 -0.029,0.302 -0.027,0.302 -0.019,0.292 -0.024,0.301 -0.025,0.3 -0.023,0.3 -0.021,0.299 -0.021,0.299 -0.018,0.299 -0.018,0.298 -0.016,0.289 -0.014,0.298 -0.013,0.296 -0.013,0.296 -0.011,0.296 -0.008,0.295 -0.009,0.296 -0.006,0.285 -0.006,0.295 -0.003,0.293 -0.002,0.294 -10e-4,0.291 v 0.302 l 0.002,0.282 0.003,0.292 0.005,0.289 0.006,0.291 0.007,0.289 0.008,0.279 0.011,0.289 0.01,0.288 -4.424,0.178 -0.012,-0.306 -0.008,-0.305 -0.009,-0.316 -0.008,-0.308 -0.006,-0.307 -0.005,-0.307 -0.002,-0.311 -0.003,-0.317 v -0.302 -0.31 l 0.004,-0.311 0.003,-0.311 0.005,-0.313 0.006,-0.32 0.009,-0.314 0.009,-0.313 0.01,-0.313 0.012,-0.315 0.013,-0.314 0.015,-0.316 0.017,-0.324 0.018,-0.316 0.018,-0.317 0.02,-0.315 0.021,-0.317 0.023,-0.318 0.022,-0.318 0.026,-0.318 0.035,-0.328 0.027,-0.319 0.03,-0.32 0.03,-0.319 1.772,-2.001 z m -2.091,12.059 4.424,-0.178 0.013,0.287 0.014,0.278 0.016,0.286 0.018,0.286 0.018,0.286 0.02,0.274 0.021,0.285 0.022,0.284 0.023,0.283 0.017,0.273 0.026,0.283 0.028,0.282 0.029,0.281 0.029,0.272 0.033,0.281 0.033,0.28 0.026,0.27 0.035,0.279 0.037,0.277 0.039,0.278 0.041,0.268 0.041,0.277 0.034,0.276 0.044,0.267 0.047,0.274 0.046,0.274 0.04,0.265 0.05,0.272 0.052,0.273 0.053,0.263 0.054,0.271 0.046,0.27 -4.338,0.911 -0.063,-0.289 -0.054,-0.29 -0.054,-0.298 -0.05,-0.289 -0.051,-0.292 -0.058,-0.3 -0.046,-0.292 -0.046,-0.292 -0.045,-0.304 -0.051,-0.293 -0.041,-0.293 -0.041,-0.305 -0.039,-0.295 -0.038,-0.295 -0.035,-0.298 -0.043,-0.306 -0.033,-0.297 -0.032,-0.299 -0.03,-0.308 -0.029,-0.299 -0.027,-0.3 -0.027,-0.301 -0.033,-0.309 -0.023,-0.3 -0.023,-0.304 -0.02,-0.301 -0.02,-0.312 -0.019,-0.303 -0.017,-0.304 -0.015,-0.304 -0.015,-0.314 -0.013,-0.302 z m 1.13,9.591 4.338,-0.911 0.058,0.271 0.058,0.262 0.051,0.27 0.062,0.271 0.061,0.26 0.057,0.268 0.064,0.268 0.067,0.26 0.068,0.267 0.06,0.267 0.07,0.267 0.071,0.256 0.065,0.265 0.075,0.265 0.067,0.255 0.076,0.263 0.08,0.265 0.07,0.263 0.082,0.252 0.073,0.262 0.086,0.261 0.085,0.261 0.077,0.251 0.089,0.26 0.082,0.258 0.09,0.25 0.084,0.258 0.094,0.258 0.095,0.257 0.087,0.248 0.098,0.256 0.09,0.256 -4.129,1.641 -0.108,-0.273 -0.097,-0.274 -0.105,-0.282 -0.095,-0.276 -0.094,-0.274 -0.102,-0.276 -0.09,-0.285 -0.098,-0.277 -0.088,-0.277 -0.097,-0.288 -0.085,-0.278 -0.085,-0.278 -0.092,-0.28 -0.081,-0.288 -0.089,-0.28 -0.079,-0.282 -0.077,-0.281 -0.084,-0.291 -0.076,-0.283 -0.081,-0.284 -0.072,-0.291 -0.071,-0.285 -0.077,-0.285 -0.066,-0.284 -0.067,-0.295 -0.065,-0.286 -0.071,-0.287 -0.063,-0.295 -0.061,-0.289 -0.068,-0.288 -0.058,-0.297 -0.059,-0.292 z m 2.601,9.08 4.129,-1.641 0.102,0.254 0.093,0.247 0.103,0.253 0.096,0.253 0.106,0.254 0.099,0.244 0.101,0.251 0.11,0.252 0.104,0.243 0.112,0.249 0.106,0.25 0.116,0.242 0.108,0.248 0.119,0.249 0.111,0.248 0.113,0.247 0.123,0.238 0.115,0.247 0.118,0.246 0.127,0.245 0.12,0.236 0.13,0.244 0.122,0.244 0.125,0.244 0.134,0.242 0.127,0.242 0.129,0.234 0.139,0.24 0.131,0.24 0.133,0.24 0.143,0.239 0.136,0.239 -3.8,2.339 -0.153,-0.258 -0.142,-0.257 -0.15,-0.257 -0.149,-0.258 -0.138,-0.26 -0.146,-0.268 -0.145,-0.261 -0.135,-0.26 -0.142,-0.261 -0.14,-0.261 -0.13,-0.262 -0.138,-0.271 -0.127,-0.265 -0.137,-0.264 -0.132,-0.265 -0.123,-0.273 -0.13,-0.265 -0.129,-0.267 -0.119,-0.267 -0.127,-0.266 -0.116,-0.277 -0.123,-0.268 -0.112,-0.268 -0.12,-0.278 -0.111,-0.27 -0.118,-0.27 -0.114,-0.278 -0.107,-0.272 -0.114,-0.271 -0.102,-0.271 -0.111,-0.282 -0.1,-0.271 z m 4.079,8.542 3.8,-2.339 0.278,0.473 0.282,0.477 0.284,0.462 0.286,0.46 0.288,0.463 0.289,0.449 0.292,0.444 0.294,0.448 0.288,0.435 0.298,0.431 0.299,0.434 0.302,0.421 0.305,0.415 0.297,0.421 0.309,0.406 0.31,0.401 0.302,0.397 0.313,0.4 0.308,0.388 0.317,0.381 0.312,0.378 0.321,0.381 0.315,0.367 0.325,0.363 0.318,0.358 0.319,0.36 0.332,0.35 0.324,0.342 0.326,0.339 0.329,0.332 0.338,0.338 0.331,0.324 -3.036,3.318 -0.366,-0.359 -0.356,-0.354 -0.362,-0.369 -0.361,-0.375 -0.359,-0.378 -0.349,-0.384 -0.354,-0.378 -0.354,-0.395 -0.342,-0.398 -0.349,-0.403 -0.341,-0.4 -0.345,-0.412 -0.335,-0.418 -0.341,-0.423 -0.332,-0.419 -0.337,-0.433 -0.327,-0.437 -0.326,-0.441 -0.331,-0.439 -0.32,-0.451 -0.319,-0.456 -0.317,-0.452 -0.315,-0.467 -0.322,-0.469 -0.311,-0.468 -0.31,-0.479 -0.307,-0.485 -0.307,-0.48 -0.303,-0.494 -0.301,-0.5 -0.3,-0.494 -0.296,-0.507 z m 10.594,13.818 3.036,-3.318 0.334,0.317 0.335,0.312 0.337,0.316 0.339,0.303 0.343,0.295 0.342,0.293 0.346,0.297 0.339,0.282 0.349,0.277 0.352,0.273 0.352,0.275 0.355,0.264 0.349,0.267 0.359,0.252 0.359,0.248 0.363,0.253 0.355,0.239 0.366,0.242 0.369,0.23 0.362,0.233 0.372,0.23 0.374,0.215 0.368,0.219 0.378,0.215 0.372,0.201 0.382,0.206 0.374,0.201 0.387,0.196 0.388,0.183 0.38,0.189 0.394,0.183 0.384,0.179 -1.77,4.175 -0.438,-0.197 -0.425,-0.2 -0.434,-0.206 -0.425,-0.219 -0.42,-0.215 -0.427,-0.218 -0.416,-0.223 -0.424,-0.238 -0.413,-0.233 -0.419,-0.236 -0.409,-0.252 -0.407,-0.246 -0.414,-0.252 -0.403,-0.265 -0.401,-0.26 -0.407,-0.274 -0.398,-0.271 -0.396,-0.284 -0.393,-0.288 -0.4,-0.285 -0.39,-0.299 -0.388,-0.294 -0.386,-0.309 -0.384,-0.312 -0.39,-0.319 -0.379,-0.313 -0.38,-0.327 -0.375,-0.334 -0.374,-0.337 -0.372,-0.335 -0.37,-0.348 -0.367,-0.353 z m 14.368,8.832 -0.782,0.253 -0.762,-0.343 1.544,0.09 z m -1.544,-0.09 1.77,-4.175 -1.544,-0.09 0.359,-0.113 0.356,-0.129 0.355,-0.136 0.355,-0.133 0.354,-0.149 0.361,-0.147 0.352,-0.162 0.351,-0.161 0.358,-0.168 0.348,-0.184 0.357,-0.181 0.344,-0.189 0.354,-0.194 0.353,-0.202 0.351,-0.218 0.351,-0.216 0.341,-0.223 0.347,-0.229 0.347,-0.237 0.346,-0.244 0.354,-0.25 0.343,-0.258 0.342,-0.265 0.34,-0.271 0.349,-0.279 0.34,-0.276 0.346,-0.292 0.336,-0.301 0.344,-0.307 0.343,-0.313 0.333,-0.321 0.342,-0.327 3.053,3.301 -0.375,0.364 -0.385,0.356 -0.378,0.349 -0.378,0.344 -0.389,0.335 -0.382,0.328 -0.39,0.33 -0.383,0.313 -0.394,0.309 -0.394,0.299 -0.396,0.293 -0.388,0.287 -0.397,0.28 -0.398,0.272 -0.4,0.265 -0.409,0.258 -0.402,0.251 -0.402,0.236 -0.404,0.237 -0.406,0.231 -0.414,0.224 -0.408,0.217 -0.418,0.201 -0.41,0.204 -0.419,0.196 -0.421,0.181 -0.413,0.182 -0.423,0.168 -0.427,0.169 -0.425,0.152 -0.426,0.147 -0.429,0.149 -1.548,-0.088 z m 14.425,-8.039 -3.053,-3.301 0.338,-0.334 0.336,-0.337 0.332,-0.344 0.329,-0.347 0.335,-0.352 0.324,-0.365 0.32,-0.361 0.316,-0.366 0.314,-0.371 0.319,-0.373 0.309,-0.38 0.307,-0.383 0.311,-0.389 0.3,-0.393 0.307,-0.396 0.292,-0.402 0.3,-0.406 0.288,-0.41 0.293,-0.415 0.291,-0.418 0.278,-0.423 0.283,-0.427 0.282,-0.434 0.27,-0.435 0.275,-0.44 0.272,-0.443 0.271,-0.449 0.267,-0.453 0.254,-0.467 0.261,-0.46 0.257,-0.466 0.255,-0.471 3.888,2.195 -0.271,0.505 -0.276,0.502 -0.277,0.497 -0.29,0.483 -0.284,0.489 -0.286,0.484 -0.29,0.481 -0.293,0.475 -0.304,0.473 -0.299,0.466 -0.303,0.464 -0.313,0.459 -0.306,0.455 -0.313,0.448 -0.322,0.447 -0.315,0.442 -0.329,0.436 -0.323,0.433 -0.333,0.428 -0.329,0.423 -0.34,0.419 -0.344,0.416 -0.338,0.41 -0.35,0.406 -0.352,0.402 -0.355,0.396 -0.358,0.382 -0.353,0.389 -0.363,0.382 -0.367,0.379 -0.369,0.374 -0.376,0.371 z m 10.321,-14.014 -3.888,-2.195 0.131,-0.235 0.122,-0.239 0.128,-0.239 0.12,-0.239 0.127,-0.24 0.117,-0.242 0.116,-0.242 0.124,-0.242 0.115,-0.243 0.121,-0.245 0.112,-0.244 0.119,-0.246 0.111,-0.246 0.119,-0.247 0.106,-0.249 0.117,-0.247 0.115,-0.249 0.104,-0.251 0.113,-0.242 0.104,-0.251 0.111,-0.252 0.102,-0.261 0.108,-0.245 0.1,-0.254 0.105,-0.255 0.097,-0.256 0.105,-0.256 0.103,-0.258 0.096,-0.257 0.101,-0.258 0.093,-0.259 0.1,-0.26 4.146,1.607 -0.099,0.277 -0.109,0.276 -0.102,0.277 -0.111,0.275 -0.103,0.274 -0.105,0.275 -0.115,0.273 -0.105,0.274 -0.117,0.271 -0.107,0.28 -0.12,0.263 -0.11,0.269 -0.12,0.269 -0.113,0.278 -0.123,0.267 -0.114,0.267 -0.116,0.266 -0.126,0.268 -0.118,0.265 -0.127,0.263 -0.121,0.264 -0.129,0.263 -0.122,0.262 -0.132,0.26 -0.124,0.262 -0.133,0.259 -0.136,0.259 -0.127,0.258 -0.137,0.259 -0.129,0.256 -0.138,0.255 -0.132,0.253 z m 3.82,-8.538 -4.146,-1.607 0.098,-0.262 0.089,-0.262 0.098,-0.263 0.096,-0.265 0.086,-0.264 0.095,-0.265 0.092,-0.266 0.083,-0.267 0.093,-0.268 0.09,-0.268 0.081,-0.268 0.088,-0.279 0.089,-0.261 0.077,-0.28 0.085,-0.273 0.085,-0.271 0.075,-0.274 0.083,-0.272 0.081,-0.276 0.081,-0.275 0.07,-0.275 0.08,-0.278 0.077,-0.277 0.077,-0.279 0.066,-0.279 0.075,-0.28 0.073,-0.281 0.073,-0.282 0.063,-0.283 0.071,-0.281 0.07,-0.285 0.068,-0.285 4.303,1.053 -0.068,0.302 -0.07,0.302 -0.07,0.301 -0.08,0.301 -0.073,0.298 -0.075,0.299 -0.074,0.299 -0.085,0.297 -0.075,0.296 -0.079,0.295 -0.079,0.296 -0.088,0.294 -0.081,0.293 -0.082,0.293 -0.081,0.292 -0.093,0.29 -0.086,0.291 -0.086,0.29 -0.095,0.28 -0.087,0.296 -0.088,0.279 -0.098,0.287 -0.092,0.285 -0.091,0.286 -0.101,0.284 -0.093,0.284 -0.095,0.283 -0.104,0.283 -0.095,0.28 -0.098,0.282 -0.106,0.28 -0.097,0.28 z m 2.767,-9.298 -4.303,-1.053 0.059,-0.284 0.066,-0.285 0.064,-0.285 0.055,-0.276 0.063,-0.284 0.06,-0.285 0.06,-0.284 0.05,-0.287 0.056,-0.276 0.055,-0.285 0.054,-0.285 0.052,-0.287 0.042,-0.284 0.05,-0.277 0.047,-0.286 0.046,-0.285 0.037,-0.277 0.043,-0.287 0.042,-0.286 0.04,-0.285 0.04,-0.278 0.037,-0.287 0.027,-0.286 0.035,-0.278 0.031,-0.286 0.032,-0.287 0.031,-0.277 0.027,-0.288 0.027,-0.286 0.018,-0.278 0.022,-0.288 0.023,-0.286 4.424,0.338 -0.022,0.306 -0.023,0.306 -0.034,0.313 -0.027,0.305 -0.027,0.304 -0.031,0.313 -0.031,0.305 -0.033,0.305 -0.034,0.312 -0.045,0.306 -0.037,0.304 -0.038,0.313 -0.041,0.304 -0.042,0.303 -0.043,0.305 -0.055,0.312 -0.046,0.304 -0.048,0.304 -0.049,0.312 -0.059,0.303 -0.054,0.304 -0.054,0.303 -0.054,0.302 -0.058,0.313 -0.066,0.302 -0.059,0.304 -0.06,0.302 -0.064,0.303 -0.07,0.311 -0.064,0.303 -0.066,0.303 -0.078,0.301 z m 1.512,-9.791 -4.424,-0.338 0.021,-0.288 0.021,-0.278 0.018,-0.287 0.018,-0.287 0.015,-0.287 0.016,-0.288 0.013,-0.279 0.012,-0.288 0.01,-0.287 0.009,-0.289 0.009,-0.287 0.006,-0.28 0.004,-0.288 0.004,-0.288 10e-4,-0.28 10e-4,-0.299 -10e-4,-0.288 -0.003,-0.289 -0.003,-0.281 -0.006,-0.289 -0.007,-0.289 -0.01,-0.281 -0.009,-0.288 -0.012,-0.291 -0.014,-0.281 -0.014,-0.29 -0.016,-0.291 -0.019,-0.282 -0.019,-0.289 -0.021,-0.292 -0.022,-0.281 -0.025,-0.291 4.426,-0.375 0.022,0.309 0.023,0.318 0.021,0.308 0.021,0.308 0.017,0.317 0.016,0.309 0.016,0.307 0.012,0.317 0.012,0.308 0.011,0.307 0.008,0.316 0.008,0.308 0.005,0.309 0.005,0.314 0.002,0.309 10e-4,0.305 -10e-4,0.299 -0.001,0.315 -0.004,0.306 -0.005,0.306 -0.006,0.315 -0.007,0.307 -0.011,0.307 -0.009,0.305 -0.012,0.306 -0.013,0.314 -0.016,0.305 -0.015,0.307 -0.018,0.304 -0.019,0.305 -0.02,0.313 -0.022,0.303 z m -1.8,-11.929 1.638,0.34 0.141,1.703 -1.779,-2.043 z m 1.778,2.043 -4.426,0.375 1.779,2.044 -0.48,-0.099 -0.48,-0.102 -0.48,-0.114 -0.47,-0.107 -0.479,-0.111 -0.471,-0.125 -0.478,-0.117 -0.469,-0.119 -0.47,-0.13 -0.469,-0.124 -0.468,-0.126 -0.459,-0.126 -0.468,-0.138 -0.458,-0.129 -0.47,-0.13 -0.457,-0.13 -0.459,-0.131 -0.458,-0.131 -0.458,-0.132 -0.458,-0.13 -0.448,-0.13 -0.459,-0.13 -0.45,-0.118 -0.457,-0.127 -0.45,-0.126 -0.449,-0.124 -0.45,-0.122 -0.45,-0.11 -0.45,-0.118 -0.442,-0.115 -0.45,-0.103 -0.442,-0.11 0.972,-4.444 0.478,0.11 0.468,0.12 0.477,0.116 0.467,0.117 0.468,0.128 0.468,0.122 0.467,0.125 0.466,0.125 0.459,0.127 0.466,0.138 0.459,0.129 0.468,0.129 0.458,0.131 0.457,0.131 0.459,0.131 0.459,0.13 0.458,0.132 0.449,0.13 0.458,0.129 0.451,0.119 0.459,0.126 0.451,0.125 0.451,0.125 0.452,0.113 0.452,0.119 0.442,0.117 0.453,0.105 0.443,0.111 0.454,0.109 0.444,0.096 0.446,0.102 0.446,0.099 1.778,2.043 z m -16.432,-5.909 -0.972,4.444 -0.433,-0.095 -0.425,-0.088 -0.433,-0.09 -0.435,-0.075 -0.425,-0.077 -0.434,-0.063 -0.436,-0.065 -0.443,-0.052 -0.438,-0.055 -0.436,-0.051 -0.446,-0.046 -0.445,-0.032 -0.438,-0.037 -0.446,-0.034 -0.448,-0.029 -0.448,-0.025 -0.459,-0.023 -0.449,-0.019 -0.46,-0.018 -0.451,-0.015 -0.461,-0.01 -0.462,-0.01 -0.463,-0.009 -0.463,-0.006 -0.475,-0.006 -0.464,-0.003 -0.475,-0.003 -0.476,-0.002 -0.469,-0.002 -0.477,-0.002 -0.488,-0.002 -0.479,-0.002 0.017,-4.551 0.48,0.002 0.471,0.002 0.477,0.002 0.486,0.002 0.475,0.003 0.476,0.003 0.482,0.004 0.473,0.003 0.48,0.007 0.479,0.009 0.479,0.009 0.478,0.012 0.487,0.014 0.478,0.017 0.484,0.021 0.475,0.021 0.483,0.026 0.483,0.03 0.481,0.032 0.491,0.037 0.48,0.052 0.479,0.045 0.489,0.051 0.488,0.056 0.478,0.068 0.488,0.067 0.485,0.081 0.494,0.076 0.486,0.094 0.486,0.089 0.493,0.106 0.491,0.112 z m -15.432,-1.154 -0.017,4.551 -0.479,-0.002 -0.478,-0.003 -0.476,-0.003 -0.476,-0.004 -0.475,-0.003 -0.473,-0.003 -0.464,-10e-4 h -0.473 l -0.472,10e-4 -0.462,0.002 -0.459,0.004 -0.461,0.007 -0.45,0.007 -0.459,0.012 -0.449,0.014 -0.449,0.018 -0.457,0.02 -0.446,0.025 -0.438,0.027 -0.445,0.031 -0.446,0.036 -0.438,0.033 -0.444,0.045 -0.437,0.052 -0.435,0.055 -0.437,0.052 -0.434,0.068 -0.436,0.065 -0.424,0.079 -0.435,0.078 -0.425,0.084 -0.426,0.101 -0.953,-4.462 0.493,-0.1 0.494,-0.102 0.486,-0.095 0.495,-0.081 0.487,-0.083 0.486,-0.067 0.486,-0.071 0.488,-0.055 0.487,-0.05 0.48,-0.046 0.489,-0.05 0.479,-0.035 0.481,-0.034 0.49,-0.027 0.482,-0.022 0.474,-0.022 0.483,-0.017 0.484,-0.013 0.475,-0.012 0.486,-0.008 0.477,-0.007 0.479,-0.004 0.479,-0.002 0.472,-0.002 h 0.473 l 0.48,0.003 0.474,0.002 0.474,0.003 0.476,0.003 0.477,0.004 0.477,0.003 0.485,0.001 z m -15.423,0.986 0.953,4.462 -0.45,0.096 -0.442,0.11 -0.451,0.102 -0.451,0.114 -0.449,0.118 -0.443,0.118 -0.458,0.112 -0.45,0.124 -0.45,0.124 -0.451,0.125 -0.457,0.127 -0.461,0.127 -0.449,0.129 -0.459,0.128 -0.458,0.119 -0.459,0.129 -0.46,0.137 -0.468,0.129 -0.459,0.127 -0.469,0.127 -0.459,0.125 -0.469,0.122 -0.469,0.123 -0.469,0.128 -0.47,0.12 -0.469,0.115 -0.479,0.123 -0.471,0.11 -0.479,0.108 -0.472,0.114 -0.479,0.102 -0.48,0.098 -0.867,-4.462 0.445,-0.098 0.446,-0.101 0.453,-0.096 0.443,-0.107 0.453,-0.111 0.444,-0.104 0.452,-0.118 0.452,-0.117 0.449,-0.111 0.452,-0.124 0.451,-0.122 0.46,-0.125 0.451,-0.126 0.459,-0.129 0.451,-0.128 0.459,-0.119 0.459,-0.128 0.459,-0.138 0.459,-0.128 0.467,-0.128 0.459,-0.129 0.459,-0.127 0.467,-0.124 0.468,-0.124 0.469,-0.123 0.459,-0.129 0.477,-0.121 0.467,-0.116 0.469,-0.114 0.469,-0.121 0.477,-0.11 0.469,-0.114 z"
   clip-path="url(#SVGID_2_)"
   id="path19"
   style="fill:#89c997" />
		<path
   d="m 891.396,91.811 c 4.939,-1.023 9.809,-2.699 14.716,-3.809 4.899,-1.109 9.831,-0.968 14.938,-0.943 5.122,0.026 10.063,-0.042 14.955,1.101 4.902,1.147 9.758,2.851 14.704,3.874 0.265,3.2 0.255,6.374 0.023,9.53 -0.23,3.161 -0.724,6.304 -1.452,9.434 -0.729,3.134 -1.631,6.14 -2.688,9.021 -1.054,2.87 -2.289,5.623 -3.692,8.245 -2.792,5.222 -6.092,9.737 -9.901,13.46 -3.812,3.725 -7.813,6.241 -12.015,7.603 -4.394,-1.979 -8.46,-4.711 -12.189,-8.314 -3.736,-3.609 -7.146,-8.073 -10.214,-13.328 -1.542,-2.64 -2.852,-5.375 -3.913,-8.193 -1.063,-2.818 -1.898,-5.724 -2.497,-8.715 -0.595,-2.976 -0.96,-6.063 -1.086,-9.224 -0.126,-3.164 -0.025,-6.421 0.311,-9.742"
   clip-path="url(#SVGID_2_)"
   id="path21"
   style="fill:#ffffff;fill-rule:evenodd" />
		<path
   d="m 915.23,112.933 h 3.274 v 16.208 4.805 0.058 h -10.294 -4.7 -0.051 v -13.745 h 4.751 v 8.882 h 5.544 v -3.961 h -3.274 v -4.863 h 3.274 v -3.66 h -3.274 v -7.385 h -2.851 v -4.861 h 2.851 4.751 v 4.861 3.661 z m 12.038,-8.522 h 7.603 v 4.861 h -2.902 v 7.444 h -3.22 v 3.481 h 3.327 v 4.861 h -3.327 v 3.963 h 5.464 v -8.884 h 4.752 v 13.746 h -0.08 -4.672 -10.323 v -4.862 h 0.107 v -16.207 h 3.219 v -8.344 h 0.052 v -0.059 z m -8.711,-14.95 h 5.385 v 6.125 h 10.929 v 4.861 h -10.929 v 8.824 h -5.385 v -8.824 h -10.928 v -4.861 h 10.928 v -6.125 z"
   clip-path="url(#SVGID_2_)"
   id="path23"
   style="fill:#89c997;fill-rule:evenodd" />
		<path
   d="m 891.029,153.081 c 1.061,0.233 1.91,0.525 2.413,0.837 -0.12,-0.924 0.035,-1.591 0.473,-1.717 0.733,-0.211 1.995,1.179 2.809,3.097 0.282,0.669 0.476,1.314 0.574,1.882 0.784,0.128 1.46,0.295 1.97,0.489 -0.616,-0.97 -0.806,-1.786 -0.401,-2.083 0.601,-0.44 2.304,0.446 3.79,1.978 0.518,0.534 0.943,1.077 1.251,1.578 1.779,-0.319 3.103,-0.252 3.287,0.242 0.265,0.711 -1.92,2.047 -4.863,2.975 -2.944,0.927 -5.563,1.104 -5.829,0.392 -0.259,-0.695 1.827,-1.99 4.676,-2.915 -0.238,-0.204 -0.477,-0.428 -0.709,-0.668 -0.116,-0.121 -0.229,-0.241 -0.337,-0.364 -0.61,0.578 -2.869,0.944 -5.538,0.847 -3.117,-0.114 -5.645,-0.817 -5.623,-1.565 0.021,-0.735 2.472,-1.248 5.498,-1.164 -0.145,-0.27 -0.282,-0.556 -0.41,-0.855 -0.165,-0.391 -0.299,-0.771 -0.403,-1.135 -0.762,0.489 -2.947,0.7 -5.476,0.475 -3.111,-0.278 -5.592,-1.114 -5.525,-1.86 0.066,-0.73 2.547,-1.113 5.567,-0.869 -0.131,-0.277 -0.251,-0.572 -0.361,-0.877 -0.135,-0.378 -0.241,-0.749 -0.321,-1.1 -0.63,0.477 -3.023,0.216 -5.692,-0.662 -2.953,-0.971 -5.151,-2.342 -4.893,-3.048 0.258,-0.708 2.879,-0.491 5.832,0.481 0.047,0.016 0.094,0.03 0.14,0.046 -0.104,-0.435 -0.181,-0.912 -0.223,-1.41 -0.018,-0.218 -0.027,-0.432 -0.031,-0.64 -0.885,0.024 -2.833,-1.105 -4.759,-2.817 -2.272,-2.022 -3.677,-4.112 -3.127,-4.651 0.539,-0.529 2.756,0.617 4.98,2.561 0.083,-0.289 0.182,-0.589 0.302,-0.888 0.751,-1.919 1.939,-3.24 2.643,-2.939 0.705,0.301 0.665,2.109 -0.087,4.03 -0.263,0.669 -0.578,1.266 -0.908,1.747 0.455,0.53 0.818,1.028 1.066,1.457 0.176,-0.952 0.541,-1.574 1.011,-1.573 0.771,0.003 1.538,1.675 1.708,3.723 0.076,0.911 0.021,1.747 -0.13,2.394 0.93,0.457 1.643,0.92 2.023,1.321 -0.109,-1.033 0.078,-1.783 0.555,-1.892 0.747,-0.173 1.922,1.282 2.619,3.236 0.242,0.679 0.393,1.333 0.459,1.904"
   clip-path="url(#SVGID_2_)"
   id="path25"
   style="fill:#00561f;fill-rule:evenodd" />
		<path
   d="m 954,152.405 c -1.029,0.232 -1.855,0.525 -2.345,0.835 0.116,-0.922 -0.034,-1.589 -0.459,-1.715 -0.713,-0.211 -1.939,1.179 -2.729,3.096 -0.275,0.67 -0.462,1.315 -0.559,1.883 -0.763,0.128 -1.418,0.296 -1.914,0.488 0.6,-0.968 0.783,-1.785 0.391,-2.083 -0.586,-0.44 -2.238,0.447 -3.683,1.978 -0.504,0.535 -0.917,1.077 -1.217,1.578 -1.729,-0.318 -3.015,-0.253 -3.195,0.242 -0.257,0.711 1.865,2.047 4.728,2.973 2.861,0.929 5.404,1.105 5.664,0.393 0.252,-0.696 -1.776,-1.99 -4.544,-2.915 0.232,-0.205 0.464,-0.428 0.688,-0.67 0.114,-0.119 0.225,-0.239 0.328,-0.362 0.592,0.579 2.788,0.944 5.382,0.848 3.03,-0.114 5.485,-0.818 5.465,-1.567 -0.021,-0.734 -2.402,-1.247 -5.344,-1.163 0.142,-0.271 0.275,-0.557 0.399,-0.857 0.16,-0.389 0.291,-0.77 0.391,-1.134 0.741,0.488 2.866,0.7 5.323,0.474 3.021,-0.278 5.434,-1.113 5.37,-1.859 -0.064,-0.731 -2.476,-1.113 -5.41,-0.869 0.126,-0.278 0.244,-0.572 0.35,-0.877 0.13,-0.38 0.235,-0.749 0.313,-1.1 0.611,0.477 2.938,0.216 5.53,-0.662 2.871,-0.972 5.008,-2.342 4.757,-3.049 -0.252,-0.707 -2.799,-0.49 -5.668,0.482 -0.047,0.015 -0.093,0.03 -0.138,0.046 0.102,-0.435 0.177,-0.912 0.217,-1.41 0.018,-0.219 0.028,-0.431 0.031,-0.639 0.859,0.024 2.752,-1.106 4.623,-2.818 2.21,-2.022 3.575,-4.112 3.041,-4.651 -0.523,-0.528 -2.679,0.618 -4.84,2.561 -0.081,-0.289 -0.178,-0.589 -0.293,-0.889 -0.731,-1.919 -1.885,-3.239 -2.57,-2.94 -0.684,0.302 -0.646,2.111 0.086,4.031 0.255,0.669 0.562,1.266 0.882,1.747 -0.441,0.53 -0.796,1.026 -1.036,1.456 -0.17,-0.951 -0.525,-1.573 -0.983,-1.572 -0.748,0.003 -1.493,1.675 -1.659,3.724 -0.073,0.911 -0.021,1.747 0.127,2.394 -0.902,0.457 -1.596,0.919 -1.965,1.321 0.104,-1.035 -0.079,-1.783 -0.541,-1.892 -0.725,-0.172 -1.868,1.282 -2.545,3.237 -0.237,0.681 -0.385,1.334 -0.449,1.906"
   clip-path="url(#SVGID_2_)"
   id="path27"
   style="fill:#00561f;fill-rule:evenodd" />
		<path
   d="m 929.932,165.259 c 0,0.358 0.075,0.699 0.223,1.027 0.147,0.327 0.354,0.575 0.619,0.747 0.266,0.173 0.545,0.259 0.836,0.259 0.428,0 0.794,-0.178 1.1,-0.532 0.305,-0.354 0.461,-0.836 0.461,-1.441 0,-0.585 -0.152,-1.047 -0.456,-1.383 -0.301,-0.338 -0.683,-0.505 -1.143,-0.505 -0.457,0 -0.845,0.167 -1.162,0.505 -0.319,0.336 -0.478,0.776 -0.478,1.323 m 4.123,-3.646 -1.003,0.082 c -0.089,-0.409 -0.216,-0.707 -0.381,-0.89 -0.274,-0.297 -0.611,-0.445 -1.012,-0.445 -0.321,0 -0.603,0.092 -0.845,0.277 -0.319,0.239 -0.57,0.588 -0.754,1.046 -0.183,0.456 -0.278,1.109 -0.284,1.955 0.243,-0.38 0.539,-0.664 0.891,-0.849 0.351,-0.183 0.721,-0.276 1.106,-0.276 0.674,0 1.247,0.255 1.72,0.764 0.472,0.511 0.71,1.169 0.71,1.975 0,0.533 -0.114,1.025 -0.336,1.483 -0.222,0.454 -0.528,0.804 -0.916,1.047 -0.389,0.242 -0.83,0.363 -1.324,0.363 -0.842,0 -1.527,-0.317 -2.058,-0.956 -0.533,-0.637 -0.797,-1.687 -0.797,-3.148 0,-1.634 0.292,-2.821 0.88,-3.564 0.511,-0.646 1.201,-0.972 2.07,-0.972 0.646,0 1.177,0.188 1.591,0.563 0.414,0.371 0.662,0.887 0.742,1.545 m -11.563,-0.963 v -0.998 h 5.326 v 0.807 c -0.524,0.573 -1.042,1.336 -1.558,2.285 -0.515,0.95 -0.913,1.928 -1.191,2.931 -0.202,0.709 -0.332,1.483 -0.386,2.326 h -1.038 c 0.011,-0.665 0.137,-1.469 0.381,-2.413 0.243,-0.94 0.591,-1.852 1.045,-2.725 0.457,-0.876 0.938,-1.614 1.452,-2.213 h -4.031 z m -2.169,1.661 c 0,-0.595 -0.152,-1.07 -0.461,-1.419 -0.311,-0.351 -0.681,-0.525 -1.116,-0.525 -0.447,0 -0.838,0.188 -1.171,0.565 -0.333,0.378 -0.5,0.866 -0.5,1.466 0,0.539 0.159,0.976 0.475,1.313 0.317,0.336 0.704,0.503 1.168,0.503 0.471,0 0.853,-0.167 1.153,-0.503 0.303,-0.337 0.452,-0.803 0.452,-1.4 m -4.135,3.734 0.971,-0.093 c 0.083,0.468 0.24,0.81 0.472,1.022 0.23,0.211 0.529,0.318 0.892,0.318 0.312,0 0.583,-0.074 0.817,-0.221 0.232,-0.147 0.424,-0.342 0.573,-0.585 0.152,-0.244 0.276,-0.576 0.379,-0.989 0.099,-0.416 0.15,-0.839 0.15,-1.27 0,-0.046 -0.002,-0.117 -0.005,-0.208 -0.204,0.329 -0.48,0.599 -0.828,0.804 -0.352,0.208 -0.73,0.31 -1.135,0.31 -0.684,0 -1.26,-0.256 -1.73,-0.763 -0.471,-0.509 -0.707,-1.177 -0.707,-2.008 0,-0.859 0.245,-1.547 0.738,-2.071 0.492,-0.524 1.108,-0.787 1.849,-0.787 0.535,0 1.023,0.15 1.467,0.445 0.444,0.296 0.78,0.719 1.01,1.268 0.23,0.546 0.346,1.34 0.346,2.38 0,1.079 -0.114,1.941 -0.341,2.583 -0.23,0.64 -0.569,1.127 -1.02,1.463 -0.452,0.333 -0.979,0.501 -1.586,0.501 -0.644,0 -1.168,-0.183 -1.575,-0.551 -0.409,-0.366 -0.654,-0.883 -0.737,-1.548 M 913.451,168 h -1.01 v -6.618 c -0.242,0.238 -0.561,0.477 -0.954,0.715 -0.396,0.237 -0.751,0.417 -1.066,0.537 v -1.004 c 0.565,-0.273 1.061,-0.604 1.484,-0.994 0.421,-0.388 0.72,-0.765 0.896,-1.132 h 0.649 V 168 z"
   clip-path="url(#SVGID_2_)"
   id="path29"
   style="fill:#00561f;fill-rule:evenodd" />
		<path
   d="m 936.234,83.363 c -0.013,-0.069 -0.075,-0.122 -0.183,-0.156 -0.088,-0.033 -0.15,-0.065 -0.192,-0.091 -0.239,-0.075 -0.464,-0.17 -0.675,-0.287 -0.211,-0.115 -0.412,-0.23 -0.601,-0.344 -0.413,-0.299 -0.817,-0.595 -1.207,-0.892 -0.414,-0.322 -0.741,-0.677 -0.986,-1.068 l 0.123,-0.458 c 0.287,0.058 0.729,0.124 1.33,0.197 0.577,0.071 0.931,-0.055 1.06,-0.378 -0.014,-0.068 -0.074,-0.121 -0.183,-0.156 -0.086,-0.033 -0.153,-0.042 -0.201,-0.025 l -1.864,-0.229 c 0.026,-0.224 0.077,-0.543 0.15,-0.962 0.052,-0.422 -0.042,-0.671 -0.279,-0.745 -0.178,-0.021 -0.296,0.008 -0.351,0.093 -0.079,0.102 -0.115,0.211 -0.106,0.324 l -0.081,1.208 -0.666,-0.082 c -0.242,-0.053 -0.575,-0.093 -1,-0.122 -0.406,-0.005 -0.649,0.168 -0.738,0.52 l 0.041,0.206 0.259,0.098 c 0.291,0.014 0.606,0.009 0.948,-0.017 0.322,-0.051 0.66,-0.055 1.016,-0.01 -0.267,0.89 -0.807,1.434 -1.619,1.626 -0.811,0.172 -1.399,0.37 -1.764,0.596 l -0.01,0.066 c -0.059,0.126 -0.055,0.263 0.019,0.407 0.076,0.121 0.201,0.205 0.375,0.247 0.452,-0.009 1.031,-0.222 1.735,-0.631 0.707,-0.432 1.194,-0.833 1.467,-1.206 0.406,0.344 0.898,0.853 1.468,1.534 0.574,0.655 1.01,1.048 1.311,1.174 0.203,0.004 0.444,-0.035 0.725,-0.113 0.279,-0.079 0.505,-0.185 0.679,-0.324 m -8.596,-2.173 c -0.021,-0.064 -0.076,-0.114 -0.165,-0.139 -0.087,-0.025 -0.144,-0.028 -0.167,-0.005 l -0.604,-0.021 -1.273,-0.045 0.003,-0.066 0.203,-0.061 0.273,-0.125 c 0.136,-0.041 0.261,-0.103 0.375,-0.188 0.115,-0.085 0.197,-0.195 0.247,-0.327 -0.105,-0.184 -0.259,-0.3 -0.458,-0.353 -0.2,-0.073 -0.378,-0.102 -0.534,-0.085 l -0.134,-0.005 c -0.269,-0.031 -0.66,-0.033 -1.176,-0.007 -0.516,0.004 -0.8,0.14 -0.853,0.407 -0.002,0.044 0.053,0.079 0.163,0.106 0.111,0.026 0.212,0.042 0.302,0.045 0.223,-0.016 0.471,-0.041 0.739,-0.076 0.249,-0.058 0.52,-0.083 0.811,-0.072 0.021,0.001 0.064,0.024 0.131,0.071 0.044,0.046 0.086,0.094 0.129,0.14 l -0.069,0.064 c -0.068,0.065 -0.127,0.108 -0.173,0.127 -0.045,0.045 -0.08,0.065 -0.103,0.065 -0.064,-0.07 -0.142,-0.117 -0.23,-0.142 -0.064,-0.026 -0.145,-0.028 -0.234,-0.008 l -0.269,-0.009 -0.139,0.128 c -0.003,0.091 0.051,0.16 0.162,0.208 0.086,0.047 0.164,0.094 0.229,0.143 l -0.805,-0.028 c -0.243,-0.03 -0.557,-0.054 -0.938,-0.067 -0.381,0.01 -0.589,0.17 -0.622,0.484 l -0.007,0.199 0.267,0.077 c 0.336,-0.008 0.695,-0.053 1.079,-0.131 0.382,-0.076 0.788,-0.095 1.213,-0.057 l 0.132,0.005 -0.008,0.2 c -0.031,0.291 -0.129,0.523 -0.291,0.697 -0.164,0.172 -0.391,0.265 -0.683,0.277 -0.2,-0.029 -0.398,-0.081 -0.6,-0.155 -0.197,-0.097 -0.397,-0.149 -0.598,-0.156 l -0.007,0.134 c -0.007,0.225 0.089,0.429 0.281,0.616 0.197,0.163 0.428,0.261 0.695,0.291 0.449,-0.007 0.825,-0.15 1.125,-0.43 0.323,-0.28 0.503,-0.631 0.54,-1.057 l -0.053,-0.404 c 0.224,0.009 0.469,0.027 0.735,0.059 0.247,0.009 0.492,0.028 0.738,0.061 0.112,-0.02 0.237,-0.06 0.373,-0.123 0.139,-0.086 0.221,-0.172 0.248,-0.262 m 0.759,-0.643 c -0.006,-0.426 -0.108,-0.744 -0.301,-0.951 -0.217,-0.233 -0.503,-0.354 -0.862,-0.367 0.031,-0.245 0.074,-0.489 0.127,-0.735 0.053,-0.242 0.139,-0.464 0.259,-0.661 0.024,-0.045 0.06,-0.11 0.106,-0.198 0.049,-0.11 0.085,-0.176 0.11,-0.199 -0.041,-0.18 -0.203,-0.33 -0.49,-0.453 -0.31,-0.121 -0.541,-0.186 -0.699,-0.19 -0.111,-0.005 -0.178,0.015 -0.202,0.058 -0.023,0.045 -0.05,0.113 -0.075,0.2 -0.005,0.156 0.036,0.248 0.124,0.274 0.066,0.047 0.178,0.072 0.333,0.077 l 0.203,0.008 0.13,0.14 -0.073,0.199 -0.808,-0.029 -0.137,0.13 0.058,0.203 c 0.112,0.026 0.235,0.042 0.368,0.047 0.112,0.026 0.233,0.041 0.369,0.046 l -0.079,0.333 -0.803,-0.095 -0.074,0.198 0.062,0.137 c 0.111,0.048 0.233,0.087 0.366,0.113 0.111,0.026 0.234,0.043 0.368,0.048 l -0.146,0.328 -0.94,-0.031 c 0.029,-0.179 0,-0.314 -0.086,-0.405 -0.065,-0.093 -0.161,-0.186 -0.293,-0.28 0.114,-0.064 0.183,-0.106 0.207,-0.127 0.021,-0.021 0.071,-0.088 0.141,-0.196 -0.021,-0.068 -0.053,-0.126 -0.095,-0.172 -0.043,-0.048 -0.075,-0.08 -0.097,-0.105 -0.09,-0.003 -0.17,0.04 -0.24,0.126 -0.092,0.087 -0.172,0.153 -0.241,0.194 -0.043,-0.045 -0.108,-0.094 -0.198,-0.141 -0.064,-0.046 -0.131,-0.072 -0.196,-0.075 -0.091,-0.003 -0.158,0.006 -0.204,0.026 -0.045,0.042 -0.07,0.099 -0.073,0.166 -10e-4,0.067 0.029,0.124 0.095,0.17 0.065,0.047 0.144,0.084 0.231,0.11 -0.091,0.063 -0.185,0.138 -0.275,0.224 -0.116,0.087 -0.187,0.186 -0.212,0.295 l 0.131,0.072 c 0.113,-0.04 0.239,-0.091 0.375,-0.155 0.114,-0.04 0.239,-0.091 0.375,-0.154 0.066,0.048 0.142,0.104 0.23,0.176 0.063,0.047 0.14,0.129 0.225,0.242 l -2.348,-0.082 0.013,-0.401 0.538,0.02 0.271,-0.06 0.073,-0.199 -0.129,-0.138 -0.2,-0.007 -0.605,-0.02 0.012,-0.337 0.469,0.016 0.273,-0.125 0.076,-0.198 c -0.023,-0.024 -0.043,-0.046 -0.066,-0.069 -0.021,-0.025 -0.043,-0.047 -0.065,-0.07 l -0.201,-0.007 -0.469,-0.017 -0.064,-0.069 0.071,-0.133 c 0.093,-0.062 0.193,-0.104 0.307,-0.122 0.112,-0.042 0.217,-0.082 0.308,-0.124 l 0.073,-0.2 -0.197,-0.14 -0.063,-0.069 c -0.202,-0.007 -0.438,0.029 -0.71,0.109 -0.271,0.104 -0.423,0.254 -0.451,0.454 -0.009,0.246 0.036,0.54 0.137,0.879 0.076,0.337 0.121,0.653 0.135,0.944 l -0.002,0.066 c -0.514,-0.04 -0.866,0.05 -1.052,0.267 -0.185,0.196 -0.276,0.561 -0.272,1.097 -0.026,0.113 -0.019,0.215 0.022,0.304 0.042,0.07 0.119,0.127 0.229,0.176 0.158,-0.039 0.261,-0.08 0.308,-0.123 0.068,-0.064 0.105,-0.175 0.112,-0.332 l 0.018,-0.536 c 0.145,-0.264 0.563,-0.396 1.256,-0.393 0.695,-0.021 1.221,-0.012 1.578,0.021 0.292,-0.012 0.772,0.015 1.442,0.084 0.647,0.045 1.08,0.161 1.297,0.348 0.039,0.158 0.089,0.316 0.151,0.477 0.039,0.157 0.088,0.316 0.15,0.474 l 0.132,0.073 c 0.09,-0.041 0.172,-0.105 0.241,-0.194 0.047,-0.088 0.083,-0.176 0.108,-0.265 m -2.459,-2.64 c -0.02,-0.112 -0.081,-0.214 -0.19,-0.308 -0.087,-0.092 -0.151,-0.173 -0.193,-0.242 0.023,-0.043 0.071,-0.098 0.141,-0.164 0.068,-0.064 0.117,-0.14 0.142,-0.229 0.002,-0.045 -0.019,-0.089 -0.063,-0.137 -0.019,-0.045 -0.063,-0.069 -0.131,-0.07 -0.09,-0.003 -0.17,0.039 -0.239,0.125 -0.093,0.086 -0.175,0.151 -0.242,0.193 -0.088,-0.048 -0.187,-0.096 -0.297,-0.144 -0.111,-0.049 -0.211,-0.075 -0.3,-0.079 -0.045,-0.002 -0.092,0.01 -0.136,0.03 -0.045,0.042 -0.07,0.098 -0.072,0.165 -0.003,0.089 0.039,0.158 0.127,0.206 0.087,0.048 0.176,0.096 0.263,0.144 -0.09,0.019 -0.203,0.071 -0.342,0.155 -0.136,0.062 -0.205,0.139 -0.208,0.229 0,0.022 0.021,0.046 0.064,0.068 0.043,0.025 0.088,0.049 0.133,0.072 0.067,-0.018 0.192,-0.07 0.374,-0.155 0.159,-0.083 0.285,-0.133 0.376,-0.155 0.065,0.026 0.185,0.086 0.361,0.181 0.154,0.096 0.274,0.156 0.363,0.181 l 0.069,-0.066 z m -7.64,4.043 c -0.14,-0.106 -0.432,-0.153 -0.876,-0.139 -0.449,0.018 -0.763,0.04 -0.939,0.068 -0.114,-0.019 -0.236,-0.003 -0.367,0.047 -0.113,0.026 -0.166,0.106 -0.161,0.24 0.003,0.09 0.028,0.157 0.074,0.199 0.048,0.043 0.115,0.065 0.204,0.06 0.155,-0.028 0.323,-0.045 0.501,-0.051 0.157,-0.027 0.324,-0.045 0.502,-0.051 0.112,-0.004 0.315,-0.011 0.605,-0.022 0.29,-0.009 0.468,-0.06 0.531,-0.152 -0.002,-0.045 -0.003,-0.089 -0.005,-0.133 l -0.069,-0.066 z m 0.531,-0.153 c 0.01,0.224 0.003,0.391 -0.015,0.503 -0.042,0.116 -0.163,0.176 -0.363,0.182 l -2.546,0.157 c -0.091,0.003 -0.158,-0.006 -0.204,-0.028 -0.067,0.003 -0.111,-0.007 -0.136,-0.027 -0.072,-0.155 -0.121,-0.312 -0.15,-0.464 -0.027,-0.18 -0.032,-0.338 -0.017,-0.473 -0.011,-0.335 0.061,-0.516 0.217,-0.546 0.132,-0.025 0.348,-0.032 0.638,-0.021 -0.083,0.205 -0.214,0.309 -0.393,0.316 -0.178,0.004 -0.266,0.087 -0.26,0.243 0.003,0.089 0.039,0.156 0.108,0.198 0.067,0.042 0.147,0.061 0.235,0.059 0.224,-0.03 0.41,-0.126 0.563,-0.289 0.128,-0.16 0.198,-0.341 0.215,-0.546 l 0.134,-0.004 0.471,-0.015 c 0.03,0.291 0.127,0.476 0.285,0.561 0.14,0.108 0.364,0.156 0.678,0.145 0.135,-0.028 0.232,-0.087 0.298,-0.178 0.063,-0.115 0.092,-0.216 0.09,-0.306 l -0.073,-0.132 c -0.111,0.003 -0.211,0.03 -0.299,0.079 -0.111,0.026 -0.21,0.052 -0.299,0.077 -0.067,-0.021 -0.124,-0.063 -0.175,-0.129 -0.046,-0.066 -0.079,-0.11 -0.104,-0.131 0.468,-0.062 0.77,-0.059 0.907,0.003 0.116,0.065 0.18,0.318 0.195,0.766 m -2.12,-1.133 0.056,-0.337 0.334,-0.013 0.066,-0.003 c 0.047,-0.001 0.092,-0.002 0.136,-0.004 l 0.003,0.067 0.007,0.2 -0.602,0.09 z m 2.105,-3.164 -0.336,0.013 -0.265,0.076 -0.204,-0.06 c -0.046,-0.023 -0.08,-0.065 -0.106,-0.131 -0.024,-0.066 -0.037,-0.109 -0.037,-0.134 l -0.003,-0.065 c 0.089,-0.026 0.2,-0.042 0.334,-0.047 0.111,-0.027 0.245,-0.041 0.402,-0.046 0.065,-0.003 0.123,0.017 0.17,0.061 0.047,0.045 0.081,0.088 0.105,0.131 l -0.06,0.202 z m 2.301,2.405 c -10e-4,-0.046 -0.014,-0.068 -0.037,-0.067 -0.021,-0.021 -0.057,-0.02 -0.1,0.003 -0.807,0.007 -1.612,0.012 -2.418,0.018 -0.806,-0.018 -1.612,-0.011 -2.416,0.019 -0.359,-0.01 -0.908,0.008 -1.646,0.057 -0.758,0.072 -1.164,0.287 -1.219,0.647 0.002,0.064 0.038,0.11 0.106,0.129 0.091,0.043 0.191,0.061 0.305,0.058 0.401,-0.038 0.824,-0.097 1.269,-0.18 0.423,-0.103 0.845,-0.162 1.271,-0.176 l 0.073,0.196 0.002,0.068 c -0.245,-0.013 -0.548,-0.003 -0.905,0.031 -0.357,0.012 -0.543,0.154 -0.557,0.422 -0.012,0.293 0.004,0.706 0.043,1.242 0.042,0.536 0.209,0.832 0.502,0.888 0.245,-0.03 0.513,-0.063 0.803,-0.094 0.268,-0.056 0.557,-0.086 0.869,-0.098 1.01,0.032 1.68,0.009 2.013,-0.07 0.333,-0.078 0.467,-0.711 0.404,-1.896 -0.032,-0.289 -0.162,-0.462 -0.388,-0.522 -0.227,-0.061 -0.46,-0.074 -0.707,-0.042 l -0.604,0.02 0.059,-0.27 c 0.49,-0.017 0.985,0.043 1.482,0.183 0.497,0.118 0.858,0.183 1.082,0.198 0.134,-0.028 0.287,-0.121 0.46,-0.286 0.154,-0.186 0.237,-0.343 0.254,-0.478 m -4.185,-0.594 c -0.024,-0.064 -0.061,-0.107 -0.105,-0.13 -0.045,-0.021 -0.101,-0.02 -0.168,0.005 l -0.066,0.004 c 0.019,-0.136 -0.01,-0.28 -0.082,-0.435 -0.095,-0.153 -0.188,-0.228 -0.276,-0.224 -0.091,0.002 -0.157,0.016 -0.2,0.041 -0.066,0.023 -0.109,0.058 -0.132,0.104 0.026,0.087 0.109,0.186 0.246,0.294 0.115,0.108 0.219,0.183 0.31,0.224 -0.312,0.01 -0.604,0.032 -0.869,0.062 -0.291,0.011 -0.581,0.034 -0.871,0.066 -0.047,10e-4 -0.079,-0.009 -0.104,-0.03 -0.021,-0.022 -0.035,-0.055 -0.037,-0.101 -0.011,-0.313 -0.01,-0.626 10e-4,-0.939 0.013,-0.315 0.034,-0.629 0.069,-0.942 l 0.401,-0.014 -0.064,0.067 c 0.048,0.112 0.04,0.213 -0.024,0.304 -0.062,0.093 -0.094,0.172 -0.093,0.238 l 0.074,0.132 c 0.066,-0.023 0.12,-0.061 0.162,-0.106 0.065,-0.046 0.121,-0.083 0.165,-0.106 l 0.404,-0.014 -0.059,0.27 c -0.18,-0.017 -0.382,-0.02 -0.605,-0.011 -0.246,0.031 -0.375,0.158 -0.39,0.382 0.003,0.068 0.015,0.113 0.038,0.134 0.024,0.043 0.059,0.064 0.104,0.063 0.089,-0.027 0.198,-0.053 0.334,-0.08 0.133,-0.025 0.244,-0.051 0.332,-0.079 l 0.066,-0.002 c -0.085,0.071 -0.216,0.176 -0.392,0.315 -0.174,0.119 -0.262,0.223 -0.258,0.311 10e-4,0.024 0.013,0.057 0.037,0.1 0.022,0.023 0.06,0.055 0.104,0.097 0.045,-0.001 0.09,-0.003 0.134,-0.004 0.202,-0.029 0.365,-0.136 0.493,-0.319 0.128,-0.206 0.221,-0.377 0.285,-0.513 l 0.466,-0.084 c 0.068,-0.002 0.157,-0.007 0.27,-0.01 0.11,-0.026 0.176,-0.095 0.194,-0.208 l -0.002,-0.067 c -0.047,-0.043 -0.093,-0.063 -0.137,-0.063 -0.068,-0.02 -0.112,-0.019 -0.134,0.005 l -0.605,0.021 0.059,-0.27 c 0.065,-0.002 0.19,-0.006 0.369,-0.013 0.179,-0.029 0.276,-0.1 0.295,-0.211 -0.05,-0.133 -0.197,-0.195 -0.444,-0.188 -0.269,-0.012 -0.457,-0.004 -0.568,0.021 l -0.203,0.006 -0.141,-0.195 0.403,-0.014 c 0.155,-0.005 0.38,-0.015 0.671,-0.023 0.268,-0.01 0.423,-0.082 0.462,-0.219 -0.096,-0.198 -0.413,-0.288 -0.95,-0.268 -0.557,0.019 -0.938,0.043 -1.139,0.073 -0.113,-0.018 -0.2,-0.015 -0.269,0.01 -0.09,0.024 -0.177,0.072 -0.265,0.142 -0.087,0.003 -0.154,0.029 -0.197,0.074 -0.043,0.069 -0.062,0.159 -0.057,0.272 0,0.022 0.022,0.066 0.071,0.131 0.022,0.066 0.049,0.156 0.075,0.268 l 0.053,1.475 c -0.019,0.135 -0.038,0.248 -0.056,0.338 -0.042,0.113 -0.06,0.204 -0.058,0.27 0.003,0.068 0.015,0.125 0.039,0.168 0.045,0.043 0.104,0.075 0.171,0.096 0.066,-0.026 0.243,-0.088 0.531,-0.188 0.287,-0.122 0.597,-0.189 0.934,-0.201 0.111,-0.003 0.236,0.026 0.371,0.088 0.115,0.042 0.26,0.07 0.439,0.086 0.135,-0.027 0.232,-0.074 0.298,-0.144 0.064,-0.094 0.095,-0.207 0.09,-0.342 m 3.494,0.012 c -0.025,-0.043 -0.06,-0.064 -0.104,-0.062 -0.047,-0.021 -0.08,-0.043 -0.104,-0.063 -0.203,-0.04 -0.396,-0.099 -0.577,-0.183 -0.205,-0.082 -0.399,-0.166 -0.581,-0.248 -10e-4,-0.066 0.041,-0.169 0.125,-0.306 0.062,-0.16 0.103,-0.262 0.124,-0.307 -0.026,-0.066 -0.083,-0.12 -0.173,-0.163 -0.092,-0.019 -0.147,-0.028 -0.168,-0.027 l -0.133,0.072 c 0.004,0.089 -0.017,0.18 -0.06,0.27 -0.019,0.09 -0.06,0.18 -0.125,0.273 l -0.204,-0.127 0.002,0.068 c -0.117,-0.085 -0.23,-0.161 -0.344,-0.223 -0.115,-0.063 -0.227,-0.093 -0.339,-0.089 -0.09,-0.021 -0.181,-0.005 -0.269,0.043 -0.087,0.047 -0.128,0.127 -0.124,0.239 0.003,0.089 0.027,0.156 0.072,0.2 0.048,0.042 0.116,0.063 0.204,0.06 0.113,-0.003 0.212,0.004 0.304,0.022 0.089,0.021 0.192,0.049 0.306,0.089 -0.176,0.119 -0.34,0.203 -0.495,0.253 -0.156,0.027 -0.323,0.046 -0.502,0.051 -0.045,-0.021 -0.079,-0.021 -0.102,0.004 -0.045,0.001 -0.075,0.026 -0.099,0.071 0.003,0.088 0.053,0.198 0.146,0.33 0.117,0.109 0.231,0.171 0.344,0.19 0.11,-0.026 0.31,-0.112 0.596,-0.256 0.264,-0.143 0.461,-0.252 0.594,-0.323 0.092,0.065 0.24,0.182 0.449,0.354 0.185,0.173 0.356,0.267 0.512,0.284 0.111,-0.026 0.256,-0.076 0.433,-0.149 0.178,-0.097 0.272,-0.211 0.292,-0.347 m -0.397,-1.731 c -0.024,-0.067 -0.072,-0.11 -0.14,-0.129 -0.067,-0.022 -0.135,-0.019 -0.202,0.006 l -0.402,0.014 0.068,-0.002 c -0.003,-0.067 0.006,-0.135 0.025,-0.204 -0.002,-0.066 0.008,-0.133 0.026,-0.201 -0.028,-0.201 -0.134,-0.333 -0.315,-0.393 -0.158,-0.06 -0.327,-0.078 -0.507,-0.049 l -0.535,0.019 -0.267,0.076 -0.135,-0.061 c -0.112,0.003 -0.191,0.027 -0.233,0.074 -0.043,0.046 -0.052,0.115 -0.027,0.203 l 0.073,0.2 c 0.008,0.155 0.013,0.346 0.021,0.568 0.007,0.224 0.124,0.343 0.35,0.359 0.087,-0.026 0.209,-0.053 0.365,-0.081 0.155,-0.049 0.344,-0.08 0.567,-0.088 0.155,-0.004 0.314,0.014 0.473,0.051 0.157,0.018 0.314,0.034 0.471,0.051 0.091,-0.026 0.166,-0.073 0.231,-0.142 0.043,-0.09 0.074,-0.182 0.093,-0.271 m -10.892,4.798 c -0.029,-0.065 -0.081,-0.114 -0.153,-0.15 -0.069,-0.015 -0.137,-0.017 -0.203,-0.009 l -0.05,-0.4 -0.179,-2.005 c -0.021,-0.178 -0.031,-0.347 -0.028,-0.504 -0.021,-0.177 -0.031,-0.346 -0.027,-0.504 -0.019,-0.154 -0.069,-0.284 -0.149,-0.387 -0.083,-0.125 -0.214,-0.177 -0.392,-0.156 -0.11,0.015 -0.194,0.061 -0.253,0.132 -0.036,0.073 -0.048,0.176 -0.029,0.309 0.026,0.223 0.064,0.443 0.113,0.662 0.025,0.201 0.063,0.421 0.116,0.662 l -0.726,0.157 c -0.271,-0.01 -0.573,0.014 -0.903,0.078 -0.307,0.061 -0.45,0.271 -0.43,0.628 0.011,0.088 0.042,0.15 0.092,0.19 0.072,0.037 0.162,0.047 0.273,0.035 0.286,-0.057 0.582,-0.128 0.888,-0.211 0.284,-0.079 0.578,-0.149 0.888,-0.209 0.01,0.268 0.021,0.537 0.031,0.806 0.01,0.269 0.064,0.533 0.165,0.791 -0.333,0.042 -0.771,0.151 -1.314,0.331 -0.563,0.182 -0.842,0.475 -0.838,0.881 0.008,0.067 0.049,0.107 0.117,0.122 0.072,0.035 0.153,0.048 0.243,0.037 0.192,-0.07 0.656,-0.252 1.386,-0.542 0.751,-0.295 1.191,-0.496 1.312,-0.602 l 0.05,-0.142 z m 4.447,-0.681 c -0.196,0.046 -0.381,0.113 -0.551,0.202 -0.19,0.091 -0.374,0.159 -0.548,0.204 -0.822,0.1 -1.369,0.054 -1.64,-0.137 -0.297,-0.213 -0.469,-0.688 -0.515,-1.426 l -0.015,-0.133 0.466,-0.056 c 0.222,-0.028 0.457,-0.035 0.708,-0.02 0.225,-0.005 0.46,-0.012 0.707,-0.018 0.132,-0.04 0.248,-0.099 0.351,-0.179 0.077,-0.1 0.119,-0.219 0.125,-0.355 -0.087,-0.169 -0.334,-0.239 -0.735,-0.213 -0.428,0.008 -0.707,0.03 -0.838,0.07 l -0.799,0.099 c -0.025,-0.201 -0.015,-0.395 0.029,-0.58 0.021,-0.204 0.03,-0.398 0.031,-0.577 -0.043,-0.152 -0.116,-0.302 -0.224,-0.445 -0.132,-0.166 -0.268,-0.24 -0.4,-0.224 -0.11,0.014 -0.195,0.059 -0.252,0.135 -0.038,0.072 -0.05,0.151 -0.039,0.241 0.015,0.11 0.049,0.22 0.108,0.324 0.034,0.109 0.07,0.218 0.105,0.325 0.025,0.38 0.066,0.995 0.126,1.845 0.061,0.848 0.204,1.383 0.434,1.603 0.31,0.142 0.653,0.269 1.026,0.382 0.351,0.092 0.709,0.171 1.077,0.239 l 0.409,0.016 c 0.243,-0.05 0.459,-0.213 0.651,-0.484 0.19,-0.272 0.286,-0.509 0.284,-0.712 l -0.081,-0.126 z m -10.666,1.114 -0.977,0.242 -0.455,0.114 c -0.066,0.017 -0.112,0.016 -0.138,-0.001 -0.023,0.006 -0.048,0.002 -0.073,-0.016 0.048,-0.081 0.086,-0.16 0.113,-0.235 0.048,-0.083 0.087,-0.161 0.113,-0.236 l 0.912,-0.227 c 0.081,0.049 0.162,0.097 0.244,0.146 0.081,0.049 0.164,0.096 0.245,0.146 l 0.016,0.067 z m -0.275,-2.216 c -0.037,0.033 -0.074,0.065 -0.113,0.1 -0.064,0.016 -0.104,0.048 -0.114,0.097 l -1.499,0.374 c -0.043,0.01 -0.1,0.012 -0.171,0.007 -0.064,0.016 -0.099,0.014 -0.105,-0.007 l -0.016,-0.067 c 0.007,-0.069 0.094,-0.138 0.262,-0.203 0.188,-0.07 0.33,-0.105 0.423,-0.105 l 1.188,-0.228 c -0.006,-0.022 0.017,-0.027 0.065,-0.016 0.021,-0.006 0.047,0.011 0.08,0.048 m 3.744,3.08 c -0.289,-0.043 -0.857,0.029 -1.71,0.219 -0.853,0.188 -1.449,0.337 -1.792,0.447 l -0.129,-0.245 1.106,-0.274 c 0.065,-0.017 0.14,-0.048 0.22,-0.091 0.082,-0.045 0.122,-0.111 0.122,-0.203 -0.049,-0.104 -0.101,-0.17 -0.154,-0.204 -0.076,-0.027 -0.154,-0.019 -0.235,0.025 l -1.174,0.291 10e-4,-0.275 c 0.142,-0.083 0.316,-0.162 0.53,-0.236 0.184,-0.092 0.349,-0.213 0.495,-0.366 l -0.017,-0.065 c -0.053,-0.124 -0.125,-0.223 -0.212,-0.292 -0.107,-0.067 -0.211,-0.11 -0.307,-0.131 0.13,-0.032 0.237,-0.06 0.324,-0.081 0.109,-0.027 0.185,-0.093 0.229,-0.195 l -0.049,-0.196 c -0.298,0.004 -0.766,0.075 -1.4,0.212 -0.635,0.134 -1.112,0.253 -1.432,0.357 -0.158,0.014 -0.296,0.061 -0.417,0.138 -0.146,0.059 -0.198,0.175 -0.155,0.351 l 0.016,0.063 c 0.028,0.017 0.077,0.029 0.149,0.035 0.047,0.01 0.097,0.02 0.145,0.031 l 0.457,-0.113 c -0.098,0.07 -0.179,0.161 -0.246,0.267 -0.063,0.11 -0.086,0.252 -0.063,0.432 0.113,0.088 0.272,0.128 0.479,0.122 0.2,-0.025 0.389,-0.063 0.562,-0.105 l 0.262,-0.064 0.064,0.26 c -0.271,0.023 -0.612,0.085 -1.025,0.188 -0.419,0.08 -0.614,0.269 -0.588,0.562 0.023,0.086 0.068,0.131 0.139,0.136 0.07,0.007 0.149,-0.002 0.236,-0.023 0.211,-0.075 0.437,-0.144 0.675,-0.204 0.212,-0.075 0.438,-0.142 0.678,-0.201 l 0.064,0.258 c -0.423,0.062 -1.067,0.209 -1.93,0.448 -0.885,0.243 -1.315,0.593 -1.295,1.05 0.016,0.065 0.052,0.113 0.105,0.146 0.055,0.032 0.127,0.049 0.219,0.048 0.256,-0.086 0.545,-0.227 0.864,-0.421 0.325,-0.175 0.634,-0.321 0.927,-0.44 0.25,-0.108 0.492,-0.204 0.727,-0.284 0.254,-0.087 0.501,-0.16 0.739,-0.221 0.57,-0.118 1.157,-0.172 1.76,-0.161 0.58,0.017 1.036,-0.003 1.366,-0.064 0.213,-0.075 0.363,-0.206 0.457,-0.39 0.113,-0.194 0.184,-0.373 0.213,-0.541 m -1.303,-1.888 c -0.248,-0.631 -0.759,-0.874 -1.529,-0.726 -0.791,0.15 -1.455,0.314 -1.987,0.495 -0.309,0.054 -0.775,0.169 -1.399,0.349 -0.631,0.157 -1.011,0.342 -1.141,0.561 -0.071,0.086 -0.101,0.243 -0.089,0.472 0.005,0.204 0.025,0.374 0.056,0.503 0,0.094 0.038,0.199 0.113,0.319 0.071,0.098 0.163,0.143 0.277,0.137 0.146,-0.059 0.234,-0.128 0.261,-0.203 0.044,-0.104 0.05,-0.22 0.017,-0.351 l -0.13,-0.521 c 0.077,-0.157 0.437,-0.328 1.083,-0.513 0.662,-0.21 1.105,-0.334 1.327,-0.365 0.234,-0.081 0.613,-0.177 1.139,-0.284 0.521,-0.131 0.896,-0.153 1.125,-0.074 0.012,0.046 0.087,0.163 0.227,0.36 0.137,0.173 0.24,0.31 0.31,0.407 l 0.147,0.034 c 0.075,-0.066 0.133,-0.161 0.171,-0.286 0.014,-0.117 0.024,-0.223 0.022,-0.314 m -1.87,-1.402 c -0.071,-0.191 -0.209,-0.284 -0.415,-0.279 -0.185,0.001 -0.359,0.033 -0.53,0.099 l -1.954,0.486 c -0.109,0.026 -0.2,0.073 -0.277,0.139 -0.048,0.082 -0.059,0.176 -0.031,0.285 0.026,0.106 0.084,0.244 0.172,0.408 0.107,0.156 0.219,0.231 0.332,0.227 l 0.391,-0.098 1.742,-0.503 c 0.109,-0.027 0.205,-0.063 0.285,-0.106 0.077,-0.065 0.154,-0.164 0.235,-0.301 0.013,-0.049 0.021,-0.109 0.025,-0.18 0.011,-0.048 0.018,-0.107 0.025,-0.177 m 0.017,-0.767 c -0.048,-0.102 -0.131,-0.152 -0.244,-0.145 -0.115,0.004 -0.202,0.027 -0.262,0.065 l -1.106,0.276 -0.048,-0.196 c 0.151,-0.038 0.38,-0.096 0.684,-0.17 0.28,-0.071 0.429,-0.177 0.438,-0.317 -0.076,-0.12 -0.224,-0.163 -0.447,-0.132 -0.245,0.039 -0.416,0.094 -0.513,0.164 l -0.13,0.031 c -0.054,-0.124 -0.132,-0.208 -0.235,-0.252 -0.126,-0.038 -0.23,-0.045 -0.318,-0.023 -0.092,-10e-4 -0.165,0.028 -0.22,0.088 -0.055,0.061 -0.067,0.144 -0.041,0.252 0.012,0.042 0.021,0.087 0.032,0.131 l -0.455,0.114 c -0.159,0.014 -0.346,0.049 -0.563,0.104 -0.217,0.054 -0.313,0.182 -0.285,0.383 0.021,0.088 0.068,0.133 0.139,0.139 0.07,0.004 0.148,-0.003 0.236,-0.025 0.188,-0.069 0.37,-0.126 0.546,-0.17 0.188,-0.07 0.371,-0.128 0.545,-0.171 l 0.065,-0.016 0.05,0.196 -0.717,0.178 c -0.138,0.011 -0.334,0.048 -0.597,0.112 -0.238,0.06 -0.344,0.191 -0.315,0.392 0.02,0.088 0.066,0.133 0.137,0.138 0.072,0.006 0.15,-10e-4 0.236,-0.024 0.276,-0.093 0.556,-0.174 0.839,-0.246 0.255,-0.084 0.534,-0.165 0.839,-0.241 0.196,-0.049 0.522,-0.119 0.984,-0.212 0.461,-0.09 0.702,-0.232 0.726,-0.423"
   clip-path="url(#SVGID_2_)"
   id="path31"
   style="fill:#ffffff;fill-rule:evenodd" />
		<path
   d="m 942.655,83.841 c -0.007,-0.07 -0.05,-0.128 -0.132,-0.171 -0.081,-0.043 -0.135,-0.056 -0.162,-0.04 l -0.588,-0.146 -1.236,-0.31 0.017,-0.064 0.211,-0.016 0.295,-0.066 c 0.14,-0.011 0.276,-0.045 0.406,-0.105 0.13,-0.06 0.233,-0.149 0.309,-0.27 -0.066,-0.201 -0.191,-0.346 -0.374,-0.438 -0.179,-0.114 -0.348,-0.18 -0.506,-0.195 l -0.13,-0.032 c -0.255,-0.087 -0.638,-0.171 -1.148,-0.253 -0.505,-0.101 -0.812,-0.028 -0.919,0.222 -0.01,0.043 0.035,0.089 0.139,0.137 0.103,0.049 0.197,0.086 0.284,0.105 0.223,0.032 0.47,0.061 0.741,0.08 0.254,-0.005 0.524,0.028 0.806,0.099 0.022,0.005 0.06,0.037 0.113,0.097 0.034,0.053 0.065,0.109 0.099,0.162 l -0.081,0.05 c -0.081,0.048 -0.147,0.079 -0.196,0.088 -0.054,0.036 -0.091,0.047 -0.114,0.041 -0.048,-0.082 -0.113,-0.142 -0.196,-0.185 -0.058,-0.039 -0.135,-0.058 -0.226,-0.058 l -0.261,-0.065 -0.163,0.097 c -0.022,0.088 0.016,0.167 0.114,0.237 0.075,0.063 0.141,0.127 0.195,0.187 l -0.783,-0.195 c -0.23,-0.08 -0.533,-0.168 -0.901,-0.259 -0.375,-0.071 -0.611,0.043 -0.71,0.342 l -0.047,0.194 0.244,0.13 c 0.33,0.063 0.691,0.094 1.084,0.099 0.388,0.006 0.789,0.068 1.195,0.193 l 0.129,0.034 -0.048,0.193 c -0.092,0.278 -0.235,0.486 -0.431,0.621 -0.196,0.135 -0.438,0.179 -0.726,0.131 -0.189,-0.071 -0.374,-0.163 -0.553,-0.277 -0.173,-0.136 -0.357,-0.228 -0.555,-0.277 l -0.032,0.131 c -0.053,0.216 -0.004,0.436 0.148,0.659 0.157,0.201 0.363,0.344 0.617,0.43 0.44,0.089 0.838,0.023 1.189,-0.188 0.375,-0.206 0.624,-0.514 0.748,-0.921 l 0.033,-0.407 c 0.217,0.054 0.453,0.126 0.708,0.21 0.239,0.061 0.474,0.132 0.708,0.214 0.113,0.005 0.244,-0.009 0.391,-0.042 0.154,-0.055 0.251,-0.12 0.295,-0.203 m 0.877,-0.471 c 0.082,-0.418 0.05,-0.75 -0.098,-0.994 -0.162,-0.273 -0.417,-0.452 -0.764,-0.538 0.081,-0.233 0.173,-0.463 0.275,-0.691 0.103,-0.227 0.232,-0.427 0.39,-0.594 0.033,-0.039 0.081,-0.095 0.146,-0.172 0.07,-0.099 0.119,-0.155 0.147,-0.172 -0.003,-0.184 -0.13,-0.364 -0.385,-0.544 -0.276,-0.184 -0.491,-0.295 -0.643,-0.333 -0.109,-0.027 -0.178,-0.022 -0.212,0.016 -0.032,0.039 -0.07,0.099 -0.113,0.179 -0.039,0.151 -0.016,0.25 0.065,0.293 0.054,0.062 0.157,0.108 0.309,0.146 l 0.196,0.048 0.097,0.164 -0.114,0.18 -0.78,-0.196 -0.162,0.099 0.016,0.211 c 0.104,0.049 0.22,0.09 0.349,0.122 0.104,0.048 0.221,0.089 0.352,0.121 l -0.146,0.308 -0.766,-0.257 -0.113,0.177 0.032,0.147 c 0.098,0.07 0.209,0.134 0.334,0.187 0.104,0.05 0.22,0.091 0.351,0.123 l -0.212,0.292 -0.911,-0.227 c 0.064,-0.168 0.064,-0.308 -10e-4,-0.414 -0.044,-0.104 -0.12,-0.214 -0.229,-0.335 0.125,-0.038 0.201,-0.064 0.229,-0.079 0.026,-0.02 0.087,-0.072 0.18,-0.165 -0.007,-0.07 -0.026,-0.133 -0.059,-0.187 -0.032,-0.056 -0.056,-0.095 -0.071,-0.124 -0.089,-0.022 -0.174,0.004 -0.262,0.074 -0.109,0.065 -0.2,0.113 -0.276,0.14 -0.033,-0.055 -0.087,-0.116 -0.163,-0.18 -0.055,-0.06 -0.115,-0.099 -0.178,-0.115 -0.088,-0.02 -0.156,-0.026 -0.205,-0.014 -0.055,0.032 -0.089,0.081 -0.105,0.145 -0.016,0.066 10e-4,0.128 0.057,0.188 0.055,0.059 0.123,0.112 0.202,0.154 -0.102,0.044 -0.208,0.099 -0.315,0.162 -0.131,0.06 -0.22,0.143 -0.27,0.246 l 0.115,0.098 c 0.118,-0.016 0.252,-0.041 0.398,-0.075 0.119,-0.015 0.252,-0.041 0.399,-0.073 0.056,0.06 0.115,0.133 0.187,0.22 0.055,0.06 0.11,0.153 0.171,0.285 l -2.279,-0.569 0.097,-0.39 0.521,0.13 0.276,-0.001 0.115,-0.18 -0.098,-0.16 -0.196,-0.05 -0.586,-0.146 0.081,-0.327 0.455,0.115 0.294,-0.067 0.113,-0.178 c -0.016,-0.028 -0.031,-0.054 -0.048,-0.08 -0.019,-0.029 -0.033,-0.055 -0.049,-0.082 l -0.196,-0.05 -0.456,-0.114 -0.049,-0.081 0.098,-0.115 c 0.104,-0.041 0.211,-0.062 0.324,-0.056 0.12,-0.018 0.23,-0.035 0.327,-0.057 l 0.115,-0.18 -0.165,-0.179 -0.048,-0.08 c -0.194,-0.049 -0.434,-0.062 -0.717,-0.041 -0.287,0.045 -0.467,0.16 -0.537,0.352 -0.059,0.238 -0.076,0.534 -0.048,0.885 0.005,0.348 -0.016,0.665 -0.064,0.953 l -0.017,0.065 c -0.493,-0.146 -0.855,-0.131 -1.084,0.042 -0.222,0.152 -0.386,0.492 -0.495,1.017 -0.048,0.105 -0.061,0.205 -0.039,0.3 0.026,0.078 0.089,0.149 0.187,0.223 0.163,-0.007 0.272,-0.027 0.325,-0.058 0.083,-0.049 0.141,-0.149 0.18,-0.302 l 0.129,-0.522 c 0.195,-0.227 0.632,-0.269 1.312,-0.121 0.685,0.123 1.196,0.241 1.537,0.348 0.288,0.049 0.754,0.175 1.395,0.382 0.623,0.179 1.022,0.382 1.196,0.61 0.005,0.162 0.022,0.328 0.049,0.497 0.005,0.161 0.021,0.328 0.05,0.495 l 0.113,0.099 c 0.097,-0.021 0.19,-0.068 0.276,-0.14 0.065,-0.074 0.12,-0.153 0.162,-0.233 m -1.856,-3.094 c 0.004,-0.114 -0.034,-0.227 -0.123,-0.341 -0.064,-0.109 -0.111,-0.201 -0.139,-0.278 0.032,-0.037 0.091,-0.08 0.172,-0.13 0.08,-0.049 0.144,-0.114 0.186,-0.195 0.012,-0.042 10e-4,-0.092 -0.032,-0.147 -0.01,-0.048 -0.048,-0.079 -0.114,-0.097 -0.087,-0.02 -0.174,0.002 -0.26,0.073 -0.108,0.065 -0.201,0.111 -0.275,0.141 -0.077,-0.065 -0.163,-0.134 -0.262,-0.204 -0.099,-0.071 -0.19,-0.117 -0.276,-0.139 -0.044,-0.011 -0.091,-0.01 -0.14,0 -0.054,0.034 -0.089,0.083 -0.105,0.148 -0.021,0.085 0.006,0.161 0.082,0.228 0.076,0.066 0.151,0.129 0.227,0.195 -0.09,0 -0.214,0.027 -0.366,0.08 -0.145,0.033 -0.229,0.093 -0.253,0.181 -0.004,0.021 0.013,0.049 0.051,0.079 0.037,0.034 0.076,0.068 0.113,0.1 0.071,-0.004 0.204,-0.029 0.398,-0.073 0.175,-0.049 0.308,-0.074 0.4,-0.074 0.059,0.038 0.164,0.123 0.315,0.252 0.132,0.126 0.237,0.209 0.319,0.252 l 0.082,-0.051 z"
   clip-path="url(#SVGID_2_)"
   id="path33"
   style="fill:#ffffff;fill-rule:evenodd" />
		<path
   d="m 882.528,113.167 c 0.007,0.295 -0.088,0.537 -0.281,0.731 -0.212,0.219 -0.317,0.396 -0.315,0.532 -0.013,0.07 -0.005,0.113 0.022,0.133 0.027,0.04 0.075,0.054 0.141,0.042 l 0.188,-0.099 c 0.088,-0.016 0.18,0.047 0.271,0.19 0.071,0.147 0.125,0.261 0.162,0.345 0.017,0.226 -0.013,0.446 -0.089,0.664 -0.103,0.199 -0.253,0.373 -0.454,0.52 -0.02,0.027 -0.04,0.042 -0.061,0.047 -0.021,0.024 -0.039,0.039 -0.062,0.044 l -0.205,-1.191 -0.126,-0.727 c -0.061,-0.218 -0.099,-0.439 -0.115,-0.663 -0.02,-0.247 -0.013,-0.474 0.019,-0.684 l 0.132,-0.024 c 0.085,-0.035 0.22,-0.048 0.404,-0.035 0.205,0.012 0.328,0.069 0.369,0.175 m 0.663,-0.113 c -0.108,-0.231 -0.429,-0.382 -0.964,-0.448 -0.531,-0.044 -0.918,-0.045 -1.159,-0.004 -0.11,0.019 -0.215,0.072 -0.313,0.157 -0.072,0.103 -0.1,0.21 -0.081,0.321 l 0.011,0.067 c 0.024,-0.004 0.06,0.011 0.112,0.047 0.025,0.018 0.062,0.036 0.11,0.049 l 0.146,0.452 0.149,0.861 c 0.045,0.4 0.159,1.188 0.34,2.36 0.176,1.15 0.399,1.781 0.668,1.896 0.105,-0.044 0.177,-0.157 0.213,-0.345 0.014,-0.185 0.015,-0.31 0.004,-0.376 l -0.329,-1.509 c 0.407,-0.003 0.723,-0.149 0.945,-0.436 0.196,-0.307 0.271,-0.663 0.225,-1.063 -0.062,-0.238 -0.167,-0.448 -0.311,-0.628 -0.167,-0.174 -0.257,-0.295 -0.269,-0.362 -0.005,-0.157 0.081,-0.32 0.256,-0.487 0.159,-0.142 0.242,-0.325 0.247,-0.552 m 1.806,-0.587 c -0.032,-0.062 -0.064,-0.114 -0.095,-0.154 -0.024,-0.017 -0.05,-0.024 -0.069,-0.02 -0.112,0.019 -0.186,0.053 -0.223,0.107 -0.032,0.074 -0.05,0.165 -0.053,0.281 -0.164,0.369 -0.436,0.698 -0.817,0.992 -0.376,0.315 -0.574,0.544 -0.597,0.684 0.023,0.131 0.085,0.224 0.183,0.272 0.123,0.048 0.238,0.063 0.349,0.045 0.062,-0.035 0.114,-0.066 0.155,-0.095 0.06,-0.035 0.113,-0.065 0.153,-0.096 l 0.375,1.774 c 0.021,0.249 0.063,0.626 0.129,1.139 0.087,0.507 0.248,0.774 0.479,0.802 0.15,-0.05 0.22,-0.175 0.208,-0.377 0.009,-0.207 0.005,-0.364 -0.015,-0.475 l -0.205,-1.191 -0.299,-1.719 c -0.015,-0.09 -0.039,-0.165 -0.073,-0.226 -0.037,-0.086 -0.083,-0.157 -0.139,-0.214 l -0.012,-0.067 c 0.11,-0.156 0.237,-0.404 0.381,-0.748 0.128,-0.317 0.192,-0.554 0.185,-0.714 m 1.796,2.893 c -0.042,-0.105 -0.152,-0.155 -0.331,-0.146 -0.182,0.008 -0.308,0.008 -0.376,-0.002 l -0.397,0.068 c -0.109,0.02 -0.194,0.057 -0.254,0.113 -0.032,0.073 -0.038,0.164 -0.019,0.273 0.015,0.09 0.063,0.172 0.144,0.249 0.099,0.052 0.207,0.078 0.321,0.081 0.128,-0.045 0.25,-0.123 0.367,-0.236 0.117,-0.109 0.241,-0.188 0.369,-0.232 0.021,-0.004 0.052,-0.021 0.094,-0.05 0.041,-0.032 0.066,-0.07 0.082,-0.118 m 2.029,-2.054 c -0.056,-0.058 -0.253,-0.081 -0.591,-0.069 -0.335,0.036 -0.568,0.065 -0.701,0.089 -0.029,-0.177 -0.034,-0.336 -0.013,-0.477 -0.005,-0.156 -0.01,-0.316 -0.015,-0.473 -0.023,-0.133 -0.079,-0.26 -0.168,-0.38 -0.089,-0.121 -0.199,-0.17 -0.332,-0.148 -0.198,0.036 -0.288,0.164 -0.273,0.389 0.011,0.202 0.042,0.378 0.091,0.528 l 0.104,0.596 c -0.31,0.054 -0.604,0.127 -0.883,0.222 -0.306,0.075 -0.599,0.148 -0.882,0.221 -0.11,0.018 -0.2,0.079 -0.275,0.184 -0.046,0.12 -0.061,0.236 -0.042,0.346 0.012,0.067 0.055,0.117 0.127,0.149 0.075,0.031 0.159,0.053 0.251,0.059 0.15,-0.048 0.372,-0.143 0.666,-0.285 0.267,-0.16 0.556,-0.268 0.865,-0.321 l 0.264,-0.045 0.297,1.72 c 0.079,0.85 -0.06,1.353 -0.422,1.502 -0.381,0.159 -0.57,0.373 -0.568,0.646 0.016,0.09 0.063,0.171 0.145,0.248 0.099,0.052 0.207,0.079 0.321,0.081 0.062,-0.033 0.113,-0.066 0.153,-0.094 0.063,-0.035 0.113,-0.066 0.154,-0.096 0.633,-0.54 0.924,-1.159 0.871,-1.854 -0.052,-0.695 -0.167,-1.424 -0.345,-2.19 0.022,-0.003 0.13,0.024 0.321,0.082 0.188,0.036 0.317,0.058 0.388,0.07 0.106,-0.043 0.214,-0.141 0.321,-0.296 0.112,-0.155 0.168,-0.291 0.171,-0.404"
   clip-path="url(#SVGID_2_)"
   id="path35"
   style="fill:#ffffff;fill-rule:evenodd" />
		<path
   d="m 891.72,137.898 c 0.018,0.042 0.033,0.107 0.047,0.198 0.022,0.113 0.02,0.188 -0.014,0.227 l -0.683,0.284 c -0.112,0.021 -0.178,0.011 -0.194,-0.03 -0.026,-0.062 -0.044,-0.138 -0.06,-0.229 -0.106,-0.199 -0.148,-0.327 -0.123,-0.386 0.032,-0.038 0.146,-0.086 0.34,-0.143 l 0.187,-0.076 c 0.135,-0.081 0.233,-0.11 0.292,-0.086 0.07,-0.004 0.138,0.074 0.208,0.241 m 2.213,-4.122 -0.844,0.424 c -0.062,0.026 -0.122,0.026 -0.181,0.003 -0.029,-0.012 -0.056,-0.05 -0.081,-0.113 l -0.026,-0.061 c -0.057,-0.194 -0.117,-0.425 -0.178,-0.689 -0.042,-0.274 0.036,-0.464 0.234,-0.572 0.178,-0.097 0.336,-0.127 0.474,-0.087 0.137,0.04 0.255,0.149 0.352,0.326 l 0.25,0.769 z m -1.773,3.43 c -0.09,-0.157 -0.2,-0.219 -0.333,-0.188 -0.162,0.02 -0.302,0.065 -0.416,0.137 l -0.868,0.361 -0.309,0.129 c -0.166,0.069 -0.238,0.159 -0.216,0.27 0.011,0.143 0.048,0.26 0.111,0.354 0.057,0.194 0.156,0.432 0.297,0.713 0.128,0.309 0.326,0.434 0.592,0.371 0.072,-0.053 0.173,-0.107 0.296,-0.159 0.095,-0.064 0.216,-0.127 0.359,-0.187 l 0.371,-0.155 c 0.178,-0.098 0.307,-0.224 0.389,-0.379 0.071,-0.176 0.074,-0.372 0.01,-0.586 -0.063,-0.094 -0.112,-0.185 -0.146,-0.266 -0.056,-0.075 -0.075,-0.152 -0.06,-0.23 l -0.077,-0.185 z m -0.44,-1.053 c -0.11,-0.148 -0.257,-0.184 -0.442,-0.106 -0.217,0.064 -0.37,0.129 -0.466,0.194 l -0.682,0.284 c -0.134,0.03 -0.258,0.108 -0.377,0.231 -0.127,0.101 -0.165,0.213 -0.114,0.337 0.035,0.083 0.092,0.132 0.171,0.147 0.078,0.016 0.159,0.007 0.243,-0.027 0.115,-0.074 0.234,-0.136 0.359,-0.187 0.115,-0.071 0.234,-0.134 0.357,-0.186 l 0.683,-0.284 c 0.054,-0.046 0.107,-0.092 0.159,-0.139 0.075,-0.057 0.13,-0.102 0.16,-0.14 -0.015,-0.042 -0.032,-0.082 -0.051,-0.124 m -0.423,-0.843 c -0.071,-0.115 -0.174,-0.156 -0.307,-0.126 -0.143,0.013 -0.238,0.039 -0.292,0.085 l -0.931,0.388 c -0.133,0.031 -0.257,0.107 -0.377,0.228 -0.127,0.104 -0.165,0.216 -0.113,0.341 0.034,0.08 0.093,0.13 0.172,0.147 0.099,0.006 0.2,-0.013 0.305,-0.056 0.073,-0.054 0.171,-0.108 0.296,-0.16 0.095,-0.064 0.194,-0.116 0.297,-0.158 l 0.684,-0.285 c 0.061,-0.026 0.119,-0.061 0.172,-0.109 0.072,-0.056 0.123,-0.112 0.146,-0.171 -0.017,-0.04 -0.036,-0.083 -0.052,-0.124 m -0.041,-1.145 c -0.063,-0.095 -0.155,-0.142 -0.276,-0.14 -0.141,0.011 -0.248,0.043 -0.323,0.099 l -1.363,0.567 -0.521,0.146 c -0.144,0.059 -0.24,0.147 -0.29,0.264 -0.077,0.106 -0.086,0.23 -0.024,0.376 0.033,0.081 0.081,0.135 0.138,0.159 0.08,0.018 0.171,0.002 0.275,-0.041 0.114,-0.072 0.229,-0.146 0.346,-0.218 0.117,-0.072 0.23,-0.143 0.346,-0.215 l 0.931,-0.388 c 0.103,-0.042 0.268,-0.111 0.495,-0.205 0.203,-0.088 0.293,-0.223 0.266,-0.404 m 6.167,2.231 c -0.125,-0.069 -0.516,-0.161 -1.17,-0.277 -0.667,-0.087 -1.118,-0.153 -1.356,-0.199 0.016,-0.2 0.03,-0.424 0.047,-0.673 0.006,-0.221 -0.02,-0.431 -0.075,-0.624 -0.035,-0.084 -0.091,-0.156 -0.166,-0.222 -0.077,-0.064 -0.155,-0.082 -0.239,-0.046 -0.104,0.044 -0.177,0.097 -0.221,0.165 -0.017,0.079 -0.001,0.171 0.041,0.274 0.068,0.165 0.123,0.324 0.162,0.477 0.052,0.123 0.045,0.309 -0.023,0.556 -0.292,-0.12 -0.563,-0.215 -0.809,-0.282 -0.245,-0.068 -0.513,-0.041 -0.803,0.08 -0.092,0.015 -0.153,0.041 -0.186,0.076 -0.033,0.039 -0.029,0.11 0.015,0.215 0.047,0.052 0.275,0.103 0.683,0.15 0.408,0.049 0.714,0.117 0.92,0.2 -0.151,0.281 -0.327,0.524 -0.533,0.731 -0.225,0.215 -0.479,0.393 -0.758,0.535 -0.095,0.013 -0.182,0.061 -0.268,0.145 -0.095,0.064 -0.115,0.16 -0.064,0.283 0.052,0.122 0.167,0.196 0.347,0.219 0.17,0.001 0.322,-0.012 0.455,-0.043 0.259,-0.132 0.517,-0.387 0.775,-0.76 0.255,-0.373 0.437,-0.692 0.547,-0.955 0.262,0.107 0.618,0.264 1.066,0.465 0.436,0.23 0.785,0.315 1.052,0.253 0.093,-0.064 0.22,-0.166 0.381,-0.305 0.152,-0.159 0.211,-0.305 0.18,-0.438 m -6.838,-2.971 c -0.064,-0.095 -0.135,-0.149 -0.214,-0.165 -0.081,-0.016 -0.146,-0.001 -0.199,0.046 l -0.682,0.284 c -0.1,-0.007 -0.186,-0.008 -0.256,-0.002 -0.094,0.013 -0.168,0.033 -0.229,0.059 -0.104,0.043 -0.201,0.131 -0.29,0.265 -0.06,0.146 -0.069,0.272 -0.025,0.375 0.034,0.082 0.081,0.135 0.14,0.159 0.058,0.025 0.129,0.02 0.211,-0.015 l 0.186,-0.077 0.72,-0.373 0.434,-0.181 c 0.062,-0.026 0.115,-0.071 0.159,-0.14 0.042,-0.066 0.058,-0.144 0.045,-0.235 m 4.948,-0.169 c -0.064,-0.097 -0.152,-0.131 -0.264,-0.11 -0.133,0.031 -0.235,0.075 -0.311,0.131 l -0.53,0.292 c -0.065,-0.214 -0.117,-0.425 -0.154,-0.628 -0.035,-0.201 -0.068,-0.37 -0.101,-0.502 -0.144,-0.233 -0.389,-0.324 -0.732,-0.277 -0.354,0.026 -0.628,0.093 -0.826,0.199 -0.154,0.04 -0.328,0.111 -0.528,0.22 -0.197,0.108 -0.269,0.256 -0.21,0.451 0.078,0.185 0.177,0.398 0.302,0.639 0.103,0.246 0.142,0.485 0.116,0.715 -0.058,0.097 -0.149,0.195 -0.278,0.297 -0.134,0.081 -0.16,0.226 -0.073,0.432 0.025,0.062 0.072,0.091 0.144,0.086 0.08,0.014 0.162,0.006 0.244,-0.028 0.176,-0.1 0.391,-0.227 0.643,-0.378 0.264,-0.184 0.539,-0.334 0.828,-0.455 0.206,-0.085 0.447,-0.15 0.721,-0.191 0.266,-0.063 0.506,-0.124 0.721,-0.19 0.116,-0.073 0.207,-0.172 0.275,-0.298 0.04,-0.139 0.043,-0.275 0.013,-0.405"
   clip-path="url(#SVGID_2_)"
   id="path37"
   style="fill:#ffffff;fill-rule:evenodd" />
		<path
   d="m 958.662,117.142 c -0.114,-0.133 -0.391,-0.238 -0.831,-0.314 -0.441,-0.075 -0.754,-0.117 -0.934,-0.125 -0.106,-0.041 -0.229,-0.049 -0.369,-0.028 -0.114,0.004 -0.184,0.071 -0.205,0.203 -0.016,0.089 -0.004,0.159 0.032,0.211 0.037,0.051 0.1,0.085 0.188,0.1 0.158,0.003 0.325,0.021 0.502,0.05 0.158,0.005 0.326,0.022 0.502,0.052 0.111,0.02 0.31,0.053 0.596,0.102 0.287,0.05 0.472,0.035 0.554,-0.042 0.007,-0.043 0.015,-0.088 0.021,-0.131 l -0.056,-0.078 z m 0.553,-0.044 c -0.038,0.221 -0.078,0.384 -0.118,0.491 -0.063,0.104 -0.192,0.138 -0.392,0.104 l -2.526,-0.362 c -0.089,-0.015 -0.153,-0.037 -0.192,-0.066 -0.066,-0.013 -0.108,-0.03 -0.127,-0.057 -0.04,-0.165 -0.059,-0.327 -0.054,-0.484 0.007,-0.181 0.034,-0.336 0.077,-0.465 0.057,-0.329 0.165,-0.494 0.322,-0.49 0.137,10e-4 0.347,0.036 0.63,0.106 -0.123,0.185 -0.271,0.261 -0.448,0.231 -0.175,-0.031 -0.277,0.033 -0.305,0.187 -0.016,0.089 0.007,0.16 0.064,0.215 0.061,0.055 0.135,0.092 0.222,0.106 0.226,0.015 0.427,-0.041 0.607,-0.17 0.16,-0.131 0.267,-0.294 0.322,-0.49 l 0.133,0.024 0.464,0.078 c -0.028,0.291 0.028,0.493 0.168,0.606 0.114,0.134 0.325,0.228 0.635,0.279 0.137,0 0.243,-0.038 0.325,-0.114 0.084,-0.1 0.136,-0.194 0.15,-0.282 l -0.044,-0.144 c -0.11,-0.018 -0.214,-0.013 -0.309,0.016 -0.115,0.004 -0.218,0.009 -0.31,0.016 -0.062,-0.033 -0.108,-0.086 -0.144,-0.16 -0.032,-0.073 -0.058,-0.123 -0.076,-0.15 0.472,0.036 0.767,0.098 0.888,0.187 0.101,0.084 0.113,0.347 0.038,0.788 m -1.849,-1.54 0.123,-0.32 0.33,0.057 0.065,0.011 c 0.044,0.007 0.089,0.015 0.134,0.021 l -0.011,0.067 -0.035,0.197 -0.606,-0.033 z m 2.703,-2.674 -0.333,-0.055 -0.274,0.021 -0.189,-0.101 c -0.038,-0.031 -0.063,-0.08 -0.074,-0.148 -0.012,-0.071 -0.015,-0.118 -0.012,-0.139 l 0.012,-0.066 c 0.092,-0.006 0.204,-0.001 0.337,0.023 0.113,-0.004 0.248,0.01 0.401,0.035 0.067,0.011 0.118,0.041 0.154,0.094 0.038,0.053 0.063,0.102 0.078,0.149 l -0.1,0.187 z m 1.768,2.822 c 0.007,-0.044 0,-0.069 -0.023,-0.073 -0.017,-0.025 -0.052,-0.03 -0.099,-0.016 -0.791,-0.157 -1.581,-0.314 -2.373,-0.472 -0.785,-0.18 -1.578,-0.336 -2.37,-0.471 -0.35,-0.083 -0.892,-0.174 -1.623,-0.276 -0.757,-0.084 -1.198,0.045 -1.325,0.386 -0.011,0.066 0.015,0.118 0.077,0.15 0.08,0.059 0.177,0.098 0.288,0.117 0.399,0.046 0.826,0.073 1.278,0.08 0.434,-0.015 0.861,0.012 1.281,0.084 l 0.031,0.209 -0.01,0.065 c -0.24,-0.062 -0.538,-0.112 -0.895,-0.151 -0.354,-0.06 -0.563,0.041 -0.63,0.3 -0.071,0.286 -0.141,0.693 -0.209,1.227 -0.068,0.534 0.035,0.857 0.312,0.97 0.246,0.021 0.515,0.043 0.805,0.071 0.273,10e-4 0.563,0.028 0.871,0.081 0.983,0.236 1.645,0.347 1.986,0.337 0.343,-0.011 0.602,-0.601 0.78,-1.775 0.026,-0.291 -0.065,-0.487 -0.275,-0.592 -0.208,-0.103 -0.436,-0.163 -0.683,-0.184 l -0.597,-0.102 0.111,-0.252 c 0.487,0.082 0.957,0.242 1.417,0.479 0.463,0.216 0.803,0.352 1.021,0.411 0.136,0 0.305,-0.061 0.508,-0.187 0.186,-0.149 0.299,-0.289 0.346,-0.416 m -3.983,-1.427 c -0.01,-0.069 -0.035,-0.12 -0.075,-0.149 -0.04,-0.03 -0.096,-0.039 -0.165,-0.028 l -0.066,-0.012 c 0.044,-0.128 0.046,-0.275 0.006,-0.442 -0.061,-0.169 -0.136,-0.262 -0.225,-0.276 -0.088,-0.015 -0.157,-0.015 -0.204,0 -0.07,0.01 -0.12,0.037 -0.149,0.076 0.007,0.092 0.067,0.205 0.181,0.337 0.092,0.13 0.179,0.223 0.259,0.282 -0.308,-0.051 -0.599,-0.089 -0.865,-0.113 -0.288,-0.048 -0.576,-0.086 -0.866,-0.113 -0.045,-0.007 -0.076,-0.025 -0.095,-0.05 -0.018,-0.024 -0.023,-0.06 -0.016,-0.104 0.053,-0.31 0.115,-0.616 0.19,-0.92 0.075,-0.307 0.159,-0.61 0.258,-0.911 l 0.396,0.069 -0.076,0.053 c 0.025,0.119 -0.004,0.216 -0.084,0.292 -0.081,0.078 -0.128,0.15 -0.139,0.214 l 0.043,0.145 c 0.07,-0.011 0.131,-0.035 0.183,-0.071 0.073,-0.032 0.135,-0.058 0.182,-0.07 l 0.399,0.067 -0.112,0.252 c -0.174,-0.052 -0.371,-0.095 -0.591,-0.133 -0.246,-0.019 -0.399,0.079 -0.458,0.296 -0.012,0.067 -0.009,0.113 0.009,0.138 0.017,0.047 0.044,0.075 0.09,0.084 0.091,-0.009 0.204,-0.011 0.342,-0.011 0.137,0.001 0.25,-0.002 0.343,-0.01 l 0.065,0.011 c -0.1,0.052 -0.247,0.128 -0.447,0.23 -0.196,0.08 -0.302,0.164 -0.316,0.253 -0.004,0.022 0.002,0.058 0.017,0.104 0.018,0.026 0.046,0.065 0.082,0.117 0.044,0.007 0.089,0.016 0.133,0.023 0.202,0.011 0.385,-0.059 0.546,-0.214 0.167,-0.177 0.294,-0.324 0.383,-0.446 l 0.474,0.012 c 0.067,0.012 0.155,0.028 0.267,0.045 0.114,-0.002 0.19,-0.058 0.232,-0.162 l 0.012,-0.068 c -0.038,-0.052 -0.077,-0.081 -0.121,-0.089 -0.063,-0.033 -0.107,-0.042 -0.133,-0.022 l -0.597,-0.101 0.111,-0.253 c 0.067,0.01 0.188,0.032 0.365,0.061 0.18,0.008 0.29,-0.042 0.332,-0.147 -0.022,-0.14 -0.154,-0.231 -0.398,-0.273 -0.26,-0.066 -0.448,-0.098 -0.561,-0.096 l -0.199,-0.034 -0.099,-0.221 0.396,0.069 c 0.154,0.026 0.375,0.063 0.662,0.113 0.266,0.045 0.43,0.004 0.497,-0.122 -0.054,-0.213 -0.347,-0.365 -0.875,-0.455 -0.552,-0.094 -0.929,-0.147 -1.132,-0.157 -0.107,-0.041 -0.194,-0.058 -0.266,-0.045 -0.091,0.006 -0.187,0.035 -0.287,0.085 -0.088,-0.015 -0.157,-0.003 -0.209,0.034 -0.055,0.058 -0.092,0.144 -0.11,0.254 -0.003,0.022 0.011,0.07 0.043,0.142 0.011,0.071 0.017,0.164 0.021,0.277 l -0.248,1.457 c -0.046,0.128 -0.086,0.233 -0.123,0.32 -0.063,0.103 -0.1,0.187 -0.11,0.253 -0.013,0.065 -0.01,0.123 0.003,0.17 0.037,0.051 0.089,0.094 0.148,0.128 0.07,-0.011 0.257,-0.036 0.56,-0.076 0.306,-0.062 0.623,-0.064 0.955,-0.007 0.109,0.019 0.226,0.073 0.345,0.16 0.105,0.065 0.242,0.122 0.415,0.175 0.136,0 0.242,-0.028 0.321,-0.084 0.079,-0.076 0.13,-0.182 0.151,-0.313 m 3.421,0.718 c -0.015,-0.049 -0.044,-0.075 -0.088,-0.082 -0.042,-0.03 -0.069,-0.058 -0.089,-0.084 -0.19,-0.079 -0.367,-0.176 -0.528,-0.294 -0.185,-0.122 -0.356,-0.242 -0.519,-0.36 0.011,-0.067 0.074,-0.159 0.183,-0.275 0.095,-0.145 0.154,-0.236 0.186,-0.276 -0.012,-0.069 -0.057,-0.134 -0.138,-0.194 -0.085,-0.036 -0.139,-0.058 -0.16,-0.061 l -0.144,0.043 c -0.016,0.088 -0.053,0.173 -0.111,0.253 -0.038,0.085 -0.097,0.165 -0.178,0.243 l -0.176,-0.167 -0.011,0.067 c -0.097,-0.107 -0.193,-0.204 -0.293,-0.287 -0.098,-0.086 -0.203,-0.138 -0.313,-0.156 -0.085,-0.038 -0.174,-0.04 -0.271,-0.013 -0.095,0.029 -0.152,0.1 -0.17,0.209 -0.016,0.089 -0.006,0.16 0.031,0.211 0.036,0.051 0.1,0.086 0.187,0.1 0.11,0.019 0.208,0.045 0.293,0.084 0.083,0.036 0.178,0.087 0.28,0.148 -0.195,0.082 -0.372,0.129 -0.536,0.148 -0.157,-0.005 -0.324,-0.021 -0.501,-0.051 -0.041,-0.03 -0.074,-0.035 -0.101,-0.017 -0.044,-0.007 -0.08,0.01 -0.11,0.048 -0.015,0.089 0.01,0.207 0.077,0.355 0.091,0.129 0.189,0.214 0.297,0.255 0.114,-0.003 0.326,-0.048 0.635,-0.131 0.287,-0.087 0.503,-0.152 0.646,-0.197 0.078,0.083 0.198,0.228 0.368,0.438 0.147,0.206 0.296,0.333 0.446,0.382 0.113,-0.003 0.264,-0.024 0.452,-0.059 0.193,-0.058 0.312,-0.152 0.356,-0.28 m -0.037,-1.776 c -0.013,-0.07 -0.048,-0.122 -0.11,-0.156 -0.063,-0.034 -0.129,-0.046 -0.2,-0.034 l -0.396,-0.067 0.065,0.012 c 0.012,-0.067 0.034,-0.132 0.066,-0.194 0.012,-0.067 0.035,-0.129 0.067,-0.193 0.013,-0.202 -0.064,-0.352 -0.229,-0.448 -0.146,-0.092 -0.306,-0.144 -0.487,-0.151 l -0.529,-0.09 -0.274,0.021 -0.122,-0.088 c -0.111,-0.019 -0.192,-0.011 -0.242,0.026 -0.053,0.038 -0.075,0.102 -0.068,0.194 l 0.032,0.21 c -0.026,0.153 -0.059,0.342 -0.096,0.562 -0.037,0.219 0.052,0.361 0.269,0.42 0.094,-0.007 0.218,-0.008 0.375,-0.003 0.163,-0.018 0.354,-0.009 0.575,0.029 0.154,0.025 0.306,0.075 0.451,0.145 0.151,0.048 0.303,0.098 0.453,0.145 0.092,-0.006 0.176,-0.037 0.254,-0.092 0.058,-0.082 0.108,-0.165 0.146,-0.248"
   clip-path="url(#SVGID_2_)"
   id="path39"
   style="fill:#ffffff;fill-rule:evenodd" />
		<path
   d="m 949.826,133.57 c -0.045,0.055 -0.1,0.105 -0.167,0.151 -0.065,0.048 -0.122,0.097 -0.167,0.153 -0.29,0.128 -0.501,0.177 -0.634,0.148 -0.112,-0.021 -0.259,-0.015 -0.437,0.011 l 0.293,-0.751 0.193,-0.5 c 0.069,-0.238 0.18,-0.52 0.33,-0.846 0.159,-0.345 0.303,-0.591 0.432,-0.733 l 0.248,0.097 c 0.063,0.024 0.175,0.08 0.332,0.166 0.15,0.106 0.224,0.196 0.222,0.266 -0.155,0.276 -0.372,0.456 -0.645,0.542 -0.294,0.078 -0.484,0.196 -0.57,0.355 -0.008,0.02 -0.005,0.045 0.008,0.076 0.012,0.027 0.035,0.061 0.069,0.096 0.07,0.005 0.138,0.018 0.199,0.042 0.071,0.004 0.139,0.019 0.199,0.044 0.039,0.085 0.069,0.194 0.091,0.321 0.024,0.13 0.025,0.25 0.004,0.362 m 1.333,-1.57 c 0.019,-0.232 -0.182,-0.49 -0.599,-0.772 -0.398,-0.276 -0.701,-0.454 -0.91,-0.536 -0.137,-0.076 -0.282,-0.108 -0.43,-0.094 -0.162,-0.017 -0.277,0.06 -0.342,0.227 l 0.076,0.173 -0.107,0.462 c -0.209,0.474 -0.54,1.269 -1,2.385 -0.452,1.097 -0.699,1.855 -0.74,2.271 -0.004,0.07 0.011,0.124 0.044,0.162 0.005,0.049 0.027,0.081 0.069,0.098 0.113,0.021 0.232,-0.041 0.36,-0.184 0.106,-0.151 0.173,-0.257 0.197,-0.32 l 0.546,-1.588 0.287,0.184 c 0.28,0.084 0.603,0.09 0.967,0.017 0.346,-0.083 0.59,-0.252 0.74,-0.506 0.062,-0.288 0.057,-0.554 -0.015,-0.798 -0.085,-0.275 -0.124,-0.457 -0.111,-0.548 0.068,-0.117 0.223,-0.201 0.459,-0.253 0.217,-0.062 0.386,-0.188 0.509,-0.38 m 3.372,6.142 c -0.085,-0.033 -0.25,-0.038 -0.499,-0.016 -0.239,0.002 -0.489,-0.035 -0.749,-0.11 -0.354,-0.14 -0.623,-0.316 -0.802,-0.529 -0.161,-0.206 -0.168,-0.497 -0.021,-0.873 0.063,-0.166 0.164,-0.332 0.301,-0.497 0.106,-0.149 0.206,-0.313 0.302,-0.493 0.186,0.072 0.427,0.166 0.718,0.28 0.313,0.122 0.539,0.066 0.678,-0.168 -0.004,-0.049 -0.058,-0.095 -0.161,-0.136 -0.076,-0.053 -0.14,-0.078 -0.188,-0.073 -0.409,-0.183 -0.833,-0.36 -1.271,-0.531 -0.41,-0.183 -0.833,-0.36 -1.271,-0.532 -0.138,-0.077 -0.312,-0.12 -0.525,-0.131 -0.232,-0.018 -0.394,0.086 -0.482,0.317 -0.025,0.062 -0.021,0.112 0.013,0.149 0.026,0.058 0.08,0.104 0.163,0.136 0.134,0.027 0.269,0.055 0.4,0.083 0.14,0.007 0.273,0.036 0.399,0.084 l -0.023,0.062 c -0.335,0.735 -0.825,1.097 -1.468,1.087 -0.646,-0.012 -1.049,0.07 -1.214,0.247 -0.032,0.082 -0.029,0.168 0.008,0.256 0.067,0.074 0.149,0.141 0.245,0.203 0.136,0.027 0.273,0.035 0.425,0.021 0.169,-0.007 0.319,-0.02 0.447,-0.041 0.522,-0.108 0.948,-0.305 1.273,-0.585 0.313,-0.313 0.591,-0.684 0.832,-1.119 l 0.188,0.075 0.249,0.096 -0.048,0.127 c -0.059,0.216 -0.151,0.419 -0.275,0.613 -0.093,0.179 -0.186,0.382 -0.274,0.612 -0.133,0.405 -0.023,0.832 0.329,1.281 0.354,0.45 0.724,0.764 1.112,0.938 0.217,0.06 0.454,0.009 0.71,-0.156 0.227,-0.151 0.383,-0.307 0.468,-0.465 l 0.011,-0.212 z m -0.605,-3.623 c 0.019,-0.113 10e-4,-0.191 -0.054,-0.236 -0.054,-0.047 -0.115,-0.071 -0.187,-0.074 l -0.751,-0.291 -0.539,-0.283 c -0.103,-0.04 -0.22,-0.051 -0.349,-0.029 -0.117,0.052 -0.195,0.129 -0.235,0.233 -0.053,0.077 -0.069,0.143 -0.041,0.201 0.025,0.058 0.09,0.106 0.194,0.148 l 0.211,0.01 c 0.164,0.016 0.328,0.055 0.495,0.12 0.175,0.044 0.331,0.104 0.468,0.183 0.126,0.047 0.276,0.095 0.452,0.141 0.146,0.056 0.256,0.014 0.336,-0.123 m 1.262,0.274 c 0.193,-0.62 0.103,-1.04 -0.27,-1.258 -0.382,-0.245 -0.823,-0.44 -1.318,-0.586 0.024,-0.062 0.059,-0.121 0.104,-0.176 0.024,-0.061 0.061,-0.118 0.105,-0.175 0.019,-0.111 -0.005,-0.205 -0.072,-0.279 -0.065,-0.075 -0.136,-0.112 -0.207,-0.118 l -0.298,0.028 -0.111,0.101 c -0.008,0.021 -0.019,0.076 -0.031,0.168 -0.002,0.073 -10e-4,0.158 0.011,0.257 -0.18,-0.094 -0.452,-0.201 -0.815,-0.318 -0.353,-0.137 -0.629,-0.172 -0.822,-0.104 -0.065,0.047 -0.123,0.131 -0.174,0.256 -0.061,0.097 -0.116,0.183 -0.172,0.258 l -0.209,0.351 c -0.044,0.054 -0.066,0.141 -0.064,0.261 -0.021,0.112 0.027,0.203 0.146,0.274 0.154,0.036 0.258,0.016 0.311,-0.059 0.082,-0.087 0.147,-0.195 0.196,-0.32 0.02,-0.112 0.052,-0.197 0.099,-0.25 0.031,-0.083 0.077,-0.137 0.136,-0.163 0.122,-0.071 0.428,-0.025 0.917,0.141 0.509,0.175 0.853,0.309 1.033,0.401 0.11,0.021 0.276,0.086 0.499,0.195 0.23,0.09 0.389,0.177 0.477,0.259 0.008,0.1 -0.017,0.293 -0.082,0.579 -0.063,0.29 -0.021,0.485 0.131,0.591 0.092,0.012 0.188,-0.021 0.29,-0.103 0.079,-0.086 0.145,-0.155 0.19,-0.211"
   clip-path="url(#SVGID_2_)"
   id="path41"
   style="fill:#ffffff;fill-rule:evenodd" />
		<path
   d="m 968.36,122.54 5.82,1.344 -0.179,0.772 -5.133,-1.187 -0.661,2.868 -0.687,-0.159 0.84,-3.638 z m 3.029,-4.724 -0.142,2.021 1.693,-0.506 c 0.513,-0.154 0.936,-0.266 1.265,-0.336 -0.377,-0.103 -0.749,-0.237 -1.117,-0.401 l -1.699,-0.778 z m -2.328,-1.889 5.799,2.705 -0.06,0.848 -6.128,2.022 0.063,-0.898 1.853,-0.568 0.176,-2.492 -1.761,-0.779 0.058,-0.838 z m -0.028,-2.748 5.266,-0.185 -0.069,-1.967 0.705,-0.025 0.165,4.731 -0.704,0.025 -0.069,-1.976 -5.266,0.184 -0.028,-0.787 z m -0.203,-4.224 5.95,-0.52 0.069,0.786 -5.95,0.52 -0.069,-0.786 z m 2.176,-5.891 0.295,1.517 c 0.097,0.501 0.258,0.839 0.487,1.012 0.228,0.176 0.509,0.23 0.849,0.163 0.246,-0.048 0.443,-0.149 0.596,-0.308 0.148,-0.158 0.232,-0.342 0.248,-0.557 0.009,-0.138 -0.02,-0.381 -0.088,-0.733 l -0.292,-1.501 -2.095,0.407 z m -3.227,-0.178 5.863,-1.14 0.43,2.211 c 0.076,0.392 0.115,0.691 0.118,0.902 0.007,0.298 -0.038,0.558 -0.134,0.779 -0.097,0.22 -0.256,0.414 -0.475,0.58 -0.22,0.166 -0.475,0.277 -0.766,0.334 -0.499,0.096 -0.953,0.019 -1.359,-0.23 -0.405,-0.251 -0.69,-0.791 -0.852,-1.619 l -0.291,-1.505 -2.384,0.464 -0.15,-0.776 z m -0.215,-6.609 0.316,0.678 c -0.27,0.134 -0.471,0.296 -0.607,0.484 -0.136,0.186 -0.212,0.428 -0.232,0.724 -0.018,0.294 0.033,0.603 0.148,0.92 0.103,0.285 0.236,0.519 0.398,0.705 0.164,0.186 0.338,0.306 0.523,0.358 0.186,0.053 0.366,0.047 0.539,-0.015 0.177,-0.065 0.31,-0.171 0.405,-0.323 0.095,-0.149 0.142,-0.358 0.146,-0.623 0.005,-0.174 -0.024,-0.539 -0.089,-1.103 -0.062,-0.559 -0.077,-0.963 -0.043,-1.209 0.042,-0.319 0.144,-0.583 0.304,-0.79 0.16,-0.207 0.369,-0.357 0.628,-0.451 0.283,-0.103 0.576,-0.119 0.88,-0.048 0.307,0.07 0.578,0.238 0.818,0.499 0.241,0.264 0.429,0.584 0.567,0.96 0.15,0.418 0.217,0.808 0.199,1.176 -0.019,0.366 -0.126,0.682 -0.324,0.948 -0.198,0.264 -0.46,0.466 -0.784,0.598 l -0.313,-0.693 c 0.341,-0.168 0.563,-0.396 0.662,-0.683 0.102,-0.286 0.072,-0.645 -0.084,-1.076 -0.164,-0.45 -0.364,-0.746 -0.604,-0.892 -0.239,-0.146 -0.476,-0.177 -0.707,-0.093 -0.202,0.074 -0.342,0.209 -0.418,0.4 -0.078,0.191 -0.076,0.612 0.008,1.266 0.082,0.653 0.114,1.111 0.094,1.374 -0.032,0.381 -0.136,0.691 -0.308,0.931 -0.177,0.24 -0.415,0.415 -0.715,0.523 -0.3,0.11 -0.611,0.126 -0.938,0.052 -0.326,-0.075 -0.62,-0.247 -0.885,-0.512 -0.263,-0.269 -0.467,-0.602 -0.613,-1.002 -0.185,-0.508 -0.267,-0.961 -0.242,-1.358 0.023,-0.397 0.147,-0.747 0.373,-1.051 0.227,-0.302 0.526,-0.528 0.898,-0.674 m -1.835,-6.238 c -0.636,0.338 -1.045,0.774 -1.229,1.311 -0.184,0.537 -0.14,1.063 0.137,1.578 0.278,0.526 0.691,0.861 1.24,1.003 0.552,0.143 1.166,0.033 1.846,-0.327 0.428,-0.229 0.763,-0.501 1.007,-0.817 0.244,-0.313 0.379,-0.659 0.407,-1.032 0.027,-0.373 -0.052,-0.732 -0.236,-1.081 -0.263,-0.493 -0.658,-0.829 -1.188,-1.004 -0.527,-0.177 -1.191,-0.054 -1.984,0.369 m -0.372,-0.726 c 0.876,-0.466 1.686,-0.595 2.431,-0.389 0.745,0.209 1.314,0.683 1.711,1.427 0.259,0.485 0.374,0.988 0.352,1.502 -0.026,0.515 -0.191,0.984 -0.499,1.412 -0.307,0.424 -0.725,0.778 -1.251,1.058 -0.535,0.285 -1.071,0.433 -1.607,0.44 -0.537,0.009 -1.019,-0.127 -1.446,-0.408 -0.429,-0.28 -0.764,-0.649 -1.006,-1.107 -0.265,-0.497 -0.382,-1.003 -0.349,-1.521 0.031,-0.519 0.202,-0.99 0.51,-1.412 0.306,-0.422 0.692,-0.757 1.154,-1.002 m -6.101,-3.791 4.832,-3.51 0.466,0.639 -1.984,1.442 1.825,2.511 1.983,-1.442 0.466,0.642 -4.832,3.511 -0.465,-0.641 2.276,-1.655 -1.824,-2.511 -2.276,1.654 -0.467,-0.64 z m -4.128,-4.569 1.789,-1.788 0.808,-4.062 0.68,0.678 -0.441,2.107 c -0.085,0.391 -0.181,0.772 -0.285,1.144 0.348,-0.095 0.75,-0.189 1.207,-0.285 l 2.06,-0.424 0.651,0.651 -4.119,0.75 -1.789,1.789 -0.561,-0.56 z m -4.392,-3.763 3.17,-4.207 -1.572,-1.186 0.425,-0.562 3.78,2.849 -0.424,0.562 -1.579,-1.188 -3.17,4.207 -0.63,-0.475 z m -3.35,-2.393 3.166,-5.065 0.67,0.419 -3.165,5.066 -0.671,-0.42 z m -4.843,-4.808 0.698,0.268 c -0.099,0.283 -0.133,0.539 -0.101,0.767 0.031,0.231 0.145,0.457 0.337,0.682 0.19,0.226 0.44,0.412 0.746,0.562 0.271,0.132 0.529,0.209 0.775,0.229 0.247,0.021 0.456,-0.014 0.625,-0.104 0.171,-0.091 0.296,-0.219 0.377,-0.385 0.083,-0.17 0.105,-0.339 0.067,-0.513 -0.035,-0.174 -0.146,-0.358 -0.328,-0.552 -0.117,-0.127 -0.392,-0.369 -0.828,-0.729 -0.435,-0.358 -0.726,-0.638 -0.872,-0.839 -0.191,-0.26 -0.302,-0.52 -0.331,-0.781 -0.027,-0.26 0.02,-0.513 0.14,-0.76 0.132,-0.271 0.332,-0.486 0.601,-0.646 0.269,-0.162 0.58,-0.231 0.936,-0.209 0.356,0.022 0.714,0.121 1.072,0.297 0.4,0.195 0.72,0.43 0.961,0.706 0.241,0.276 0.384,0.579 0.426,0.908 0.041,0.327 -0.009,0.654 -0.149,0.975 l -0.706,-0.28 c 0.128,-0.357 0.13,-0.676 0.002,-0.951 -0.126,-0.278 -0.395,-0.515 -0.807,-0.716 -0.432,-0.21 -0.781,-0.285 -1.058,-0.222 -0.271,0.06 -0.464,0.202 -0.57,0.424 -0.096,0.193 -0.103,0.387 -0.023,0.578 0.075,0.192 0.37,0.493 0.884,0.905 0.515,0.412 0.854,0.72 1.022,0.922 0.241,0.297 0.383,0.592 0.425,0.884 0.04,0.294 -0.01,0.586 -0.15,0.873 -0.139,0.287 -0.352,0.515 -0.639,0.689 -0.287,0.172 -0.617,0.254 -0.993,0.245 -0.374,-0.009 -0.753,-0.106 -1.136,-0.294 -0.486,-0.236 -0.859,-0.506 -1.116,-0.807 -0.261,-0.303 -0.415,-0.641 -0.462,-1.017 -0.05,-0.376 0.008,-0.747 0.175,-1.109 m -4.621,-3.457 1.587,0.609 c 0.336,0.13 0.613,0.195 0.831,0.199 0.218,0.003 0.404,-0.054 0.562,-0.169 0.158,-0.116 0.271,-0.262 0.34,-0.443 0.103,-0.263 0.09,-0.517 -0.038,-0.76 -0.125,-0.244 -0.394,-0.444 -0.809,-0.604 l -1.766,-0.677 -0.707,1.845 z m -1.934,2.832 2.139,-5.577 2.475,0.949 c 0.497,0.192 0.855,0.387 1.075,0.586 0.22,0.199 0.358,0.454 0.418,0.768 0.056,0.314 0.024,0.623 -0.093,0.93 -0.152,0.395 -0.406,0.68 -0.768,0.853 -0.36,0.172 -0.822,0.192 -1.386,0.062 0.161,0.17 0.273,0.318 0.339,0.449 0.139,0.28 0.248,0.607 0.328,0.977 l 0.387,1.889 -0.928,-0.355 -0.293,-1.443 c -0.087,-0.417 -0.166,-0.742 -0.238,-0.972 -0.071,-0.232 -0.146,-0.404 -0.231,-0.516 -0.081,-0.114 -0.175,-0.207 -0.278,-0.279 -0.078,-0.048 -0.21,-0.11 -0.402,-0.184 l -0.855,-0.329 -0.95,2.476 -0.739,-0.284 z m -5.913,-1.349 1.242,-5.843 4.224,0.898 -0.146,0.69 -3.451,-0.734 -0.38,1.789 3.232,0.686 -0.146,0.687 -3.233,-0.688 -0.422,1.989 3.587,0.763 -0.146,0.689 -4.361,-0.926 z m -4.246,-0.558 -1.892,-6.12 0.854,0.06 1.244,4.436 c 0.103,0.355 0.185,0.689 0.245,0.997 0.116,-0.316 0.246,-0.635 0.39,-0.952 l 1.912,-4.215 0.806,0.055 -2.75,5.796 -0.809,-0.057 z m -4.349,-0.235 0.104,-5.973 0.791,0.016 -0.104,5.971 -0.791,-0.014 z m -6.633,0.443 -0.416,-5.958 0.808,-0.057 3.457,4.46 -0.327,-4.679 0.757,-0.052 0.417,5.958 -0.81,0.056 -3.458,-4.463 0.329,4.682 -0.757,0.053 z m -3.736,-5.328 0.774,-0.164 0.717,3.376 c 0.126,0.586 0.157,1.067 0.098,1.441 -0.059,0.374 -0.24,0.705 -0.541,0.995 -0.3,0.291 -0.731,0.496 -1.295,0.614 -0.547,0.118 -1.016,0.119 -1.403,0.004 -0.388,-0.114 -0.695,-0.334 -0.92,-0.66 -0.226,-0.327 -0.401,-0.798 -0.533,-1.417 l -0.719,-3.376 0.773,-0.165 0.717,3.373 c 0.108,0.507 0.235,0.872 0.381,1.09 0.145,0.221 0.346,0.372 0.604,0.454 0.257,0.081 0.553,0.087 0.885,0.016 0.568,-0.121 0.946,-0.336 1.133,-0.646 0.188,-0.308 0.203,-0.829 0.047,-1.563 l -0.718,-3.372 z m -9.193,9.076 -2.14,-5.577 0.738,-0.283 1.888,4.919 2.746,-1.055 0.253,0.659 -3.485,1.337 z m -5.542,0.164 1.773,-0.983 -1.347,-1.143 c -0.41,-0.348 -0.734,-0.639 -0.973,-0.878 0.12,0.372 0.211,0.756 0.273,1.155 l 0.274,1.849 z m -0.315,2.981 -0.891,-6.337 0.744,-0.412 5.035,4.039 -0.789,0.436 -1.485,-1.245 -2.185,1.212 0.304,1.899 -0.733,0.408 z m -2.495,-0.779 0.762,-0.29 c 0.236,0.626 0.276,1.203 0.12,1.729 -0.157,0.527 -0.492,0.967 -1.001,1.324 -0.527,0.369 -1.031,0.562 -1.511,0.58 -0.481,0.016 -0.951,-0.12 -1.409,-0.405 -0.457,-0.288 -0.85,-0.665 -1.176,-1.132 -0.357,-0.508 -0.571,-1.02 -0.643,-1.536 -0.07,-0.516 0.004,-0.998 0.227,-1.448 0.221,-0.448 0.548,-0.823 0.979,-1.124 0.49,-0.344 0.987,-0.508 1.496,-0.493 0.509,0.016 0.986,0.203 1.435,0.565 l -0.532,0.595 c -0.364,-0.276 -0.709,-0.42 -1.039,-0.432 -0.33,-0.013 -0.658,0.097 -0.986,0.327 -0.375,0.263 -0.626,0.572 -0.752,0.93 -0.126,0.358 -0.135,0.723 -0.023,1.098 0.109,0.376 0.277,0.725 0.504,1.048 0.292,0.416 0.604,0.736 0.943,0.962 0.34,0.225 0.689,0.327 1.054,0.3 0.363,-0.025 0.694,-0.143 0.992,-0.352 0.363,-0.253 0.597,-0.573 0.702,-0.958 0.105,-0.386 0.057,-0.816 -0.142,-1.288 m -4.195,5.998 -4.074,-4.367 0.578,-0.539 4.073,4.368 -0.577,0.538 z m -4.621,3.669 0.854,-0.948 c 0.263,-0.294 0.443,-0.548 0.539,-0.763 0.095,-0.217 0.138,-0.418 0.128,-0.607 -0.013,-0.263 -0.104,-0.541 -0.269,-0.83 -0.167,-0.29 -0.415,-0.584 -0.751,-0.887 -0.464,-0.419 -0.889,-0.663 -1.275,-0.734 -0.388,-0.073 -0.72,-0.038 -1.002,0.103 -0.201,0.102 -0.46,0.33 -0.774,0.677 l -0.84,0.936 3.39,3.053 z m -0.005,1.058 -4.438,-3.997 1.375,-1.529 c 0.311,-0.344 0.57,-0.59 0.776,-0.733 0.286,-0.201 0.588,-0.323 0.903,-0.365 0.409,-0.055 0.819,-0.003 1.231,0.158 0.412,0.161 0.816,0.419 1.213,0.775 0.337,0.303 0.6,0.612 0.788,0.925 0.189,0.314 0.316,0.609 0.376,0.886 0.058,0.276 0.071,0.532 0.035,0.767 -0.031,0.233 -0.116,0.478 -0.252,0.729 -0.136,0.253 -0.325,0.515 -0.566,0.782 l -1.441,1.602 z m -3.568,4.868 -4.832,-3.511 2.538,-3.493 0.57,0.413 -2.075,2.855 1.481,1.074 1.942,-2.673 0.567,0.412 -1.943,2.674 1.645,1.195 2.156,-2.968 0.57,0.415 -2.619,3.607 z m -3.507,6.579 -5.273,-2.805 0.56,-1.05 4.396,0.738 c 0.408,0.069 0.714,0.124 0.914,0.164 -0.159,-0.164 -0.393,-0.406 -0.695,-0.731 l -2.998,-3.213 0.499,-0.938 5.274,2.803 -0.358,0.672 -4.414,-2.347 3.6,3.881 -0.336,0.629 -5.298,-0.862 4.488,2.387 -0.359,0.672 z m -1.406,4.236 -5.612,-2.043 0.269,-0.741 5.613,2.042 -0.27,0.742 z m -1.547,6.016 -5.797,-1.444 1.047,-4.191 0.684,0.17 -0.854,3.423 1.773,0.443 0.8,-3.207 0.681,0.17 -0.8,3.207 1.973,0.491 0.888,-3.559 0.683,0.172 -1.078,4.325 z m -3.68,4.946 0.137,-1.538 c 0.044,-0.508 -0.019,-0.878 -0.19,-1.108 -0.171,-0.231 -0.427,-0.36 -0.771,-0.39 -0.249,-0.021 -0.468,0.021 -0.657,0.132 -0.188,0.11 -0.318,0.265 -0.394,0.467 -0.046,0.131 -0.086,0.372 -0.117,0.73 l -0.132,1.521 2.124,0.186 z m 3.055,1.061 -5.951,-0.521 0.196,-2.244 c 0.034,-0.395 0.08,-0.695 0.136,-0.899 0.074,-0.288 0.188,-0.526 0.343,-0.712 0.153,-0.185 0.359,-0.327 0.616,-0.426 0.257,-0.098 0.533,-0.135 0.827,-0.109 0.506,0.044 0.921,0.243 1.242,0.595 0.321,0.354 0.447,0.949 0.373,1.791 l -0.134,1.527 2.42,0.211 -0.068,0.787 z m 0.068,2.616 -5.973,0.105 -0.013,-0.79 5.972,-0.105 0.014,0.79 z m -2.067,5.389 -0.247,-2.012 -1.565,0.822 c -0.475,0.248 -0.868,0.439 -1.179,0.57 0.391,0.028 0.782,0.089 1.174,0.181 l 1.817,0.439 z m 2.644,1.41 -6.208,-1.549 -0.103,-0.845 5.63,-3.154 0.109,0.894 -1.712,0.913 0.306,2.479 1.876,0.43 0.102,0.832 z m 0.577,2.719 -5.133,1.184 0.442,1.918 -0.687,0.158 -1.065,-4.611 0.688,-0.159 0.443,1.926 5.134,-1.186 0.178,0.77 z"
   clip-path="url(#SVGID_2_)"
   id="path43"
   style="fill:#00561f;fill-rule:evenodd" />
	</g>
</g>
</svg>